<?xml version="1.0" standalone="no"?>
<!DOCTYPE svg PUBLIC "-//W3C//DTD SVG 20010904//EN"
 "http://www.w3.org/TR/2001/REC-SVG-20010904/DTD/svg10.dtd">
<svg version="1.0" xmlns="http://www.w3.org/2000/svg"
 width="1024.000000pt" height="1024.000000pt" viewBox="0 0 1024.000000 1024.000000"
 preserveAspectRatio="xMidYMid meet">

<g transform="translate(0.000000,1024.000000) scale(0.100000,-0.100000)"
fill="#000000" stroke="none">
<path d="M5215 9333 c-58 -31 -93 -64 -109 -102 -14 -37 -83 -90 -213 -166
-32 -19 -43 -48 -23 -60 8 -5 165 89 208 125 9 8 15 4 22 -15 22 -58 63 -141
76 -156 14 -16 19 -15 60 8 25 14 52 36 61 49 8 13 21 24 29 24 17 0 131 -70
166 -103 16 -14 36 -28 45 -31 10 -3 106 -64 213 -135 122 -80 199 -125 205
-120 6 6 6 16 -1 27 -10 16 -278 198 -509 345 -101 64 -107 69 -100 95 3 15 9
30 13 33 4 4 41 -16 82 -43 41 -28 91 -60 110 -72 140 -85 576 -369 594 -388
14 -15 17 -28 11 -64 -4 -32 -3 -46 7 -49 10 -4 12 -56 10 -258 -3 -234 -9
-291 -30 -262 -4 6 -65 47 -137 92 -132 82 -412 259 -632 400 -108 69 -122 80
-117 100 4 13 1 30 -6 38 -15 18 -67 20 -72 3 -3 -8 -11 -7 -28 5 -32 22 -37
22 -56 -8 -14 -21 -14 -28 -3 -41 8 -10 9 -18 3 -22 -6 -4 -80 -52 -165 -106
-85 -55 -194 -126 -243 -158 -48 -32 -92 -58 -96 -58 -11 0 -21 151 -11 164
14 19 19 52 9 70 -13 23 -45 20 -72 -8 -13 -12 -31 -26 -40 -29 -9 -4 -76 -46
-149 -94 -73 -48 -135 -89 -138 -91 -4 -2 -20 11 -37 27 -16 17 -41 33 -54 36
-64 16 -169 -48 -209 -127 -11 -22 -23 -68 -27 -101 l-7 -62 -77 -50 c-43 -27
-150 -97 -240 -155 -208 -135 -549 -362 -610 -407 -45 -33 -59 -55 -40 -67 5
-3 53 25 108 61 212 142 858 565 871 570 10 4 13 -17 13 -99 l0 -103 -112 -70
c-62 -39 -241 -154 -398 -257 -205 -134 -286 -192 -288 -207 -2 -12 1 -21 6
-21 8 0 298 183 557 351 55 36 130 84 168 107 l67 42 0 -102 0 -103 -143 -90
c-215 -136 -729 -475 -754 -498 -25 -23 -30 -47 -10 -47 8 0 54 26 103 58 272
178 373 242 383 242 7 0 11 -37 11 -110 l0 -109 -75 -48 c-42 -27 -138 -89
-214 -139 l-139 -92 -6 30 c-7 36 -57 88 -86 88 -70 0 -150 -85 -158 -169 -4
-43 -1 -52 26 -82 25 -28 37 -34 70 -33 51 2 96 33 122 85 11 21 26 39 34 39
7 0 70 37 139 83 200 130 275 177 281 177 3 0 6 -51 6 -114 l0 -114 -62 -37
c-57 -33 -66 -36 -94 -26 -45 16 -68 14 -91 -11 -30 -34 -37 -63 -17 -82 23
-23 10 -36 -111 -114 -163 -105 -209 -134 -237 -154 -23 -15 -28 -16 -28 -4 0
9 -14 23 -30 31 -27 14 -31 14 -36 0 -6 -15 31 -54 53 -55 6 0 9 -9 6 -19 -3
-13 3 -25 21 -36 l26 -17 0 -424 0 -424 -25 -12 c-14 -6 -25 -19 -25 -28 0 -9
-9 -25 -19 -34 -18 -17 -20 -17 -29 0 -9 16 -12 16 -27 4 -12 -10 -13 -15 -3
-21 10 -6 8 -12 -7 -23 -29 -22 -35 -20 -35 13 0 26 -14 41 -41 41 -5 0 -9
-20 -9 -44 0 -39 -4 -48 -32 -69 -65 -48 -125 -78 -129 -65 -2 7 -3 148 -1
313 l3 300 40 28 c128 92 93 307 -51 307 -79 0 -151 -82 -158 -178 -4 -75 19
-120 76 -147 l42 -19 0 -307 c0 -264 -2 -308 -15 -313 -8 -3 -15 -16 -15 -29
0 -18 -14 -33 -56 -61 -31 -20 -62 -36 -68 -36 -7 0 -17 -5 -23 -11 -9 -9 -13
-6 -18 14 -10 40 -39 28 -43 -18 -4 -43 -7 -46 -104 -110 -66 -44 -87 -75 -50
-75 11 0 47 19 81 41 34 23 63 40 66 38 2 -3 5 -79 6 -170 1 -121 -2 -171 -12
-186 -11 -18 -10 -25 4 -47 10 -14 23 -26 30 -26 36 0 49 58 22 97 -10 14 -12
24 -5 28 6 4 10 72 10 175 l0 168 30 7 c16 4 39 18 50 33 17 21 91 72 106 72
2 0 4 -114 4 -253 l0 -254 -25 -13 c-14 -7 -25 -20 -25 -27 0 -8 -4 -12 -9 -8
-5 3 -12 1 -16 -5 -3 -5 -13 -10 -22 -10 -16 0 -53 -36 -53 -51 0 -17 18 -17
59 2 23 10 45 27 48 38 3 12 13 18 26 18 12 -1 106 53 209 121 103 67 190 122
192 122 3 0 7 -73 8 -162 l3 -162 52 -34 c50 -34 51 -36 36 -58 -19 -29 -12
-51 21 -66 20 -8 29 -8 41 2 31 25 36 48 18 67 -16 16 -18 36 -15 170 l3 152
97 -61 c53 -33 106 -68 118 -79 11 -10 24 -19 29 -19 5 0 36 -17 69 -38 34
-21 86 -54 118 -72 l56 -33 4 -161 c2 -89 0 -165 -4 -171 -4 -5 -8 -21 -8 -36
0 -20 7 -30 30 -39 26 -11 33 -10 50 5 25 23 25 46 0 73 -18 19 -20 35 -20
152 0 71 4 130 8 130 5 0 28 -13 53 -29 24 -15 142 -90 262 -166 l217 -138 0
-158 c0 -175 -1 -172 70 -204 32 -15 45 -16 48 -7 2 6 13 12 25 12 22 0 22 3
19 120 -2 76 0 120 6 120 13 0 234 -140 245 -154 9 -13 3 -277 -8 -324 -6 -25
-3 -37 10 -52 24 -26 41 -25 70 5 30 29 31 39 6 64 -17 17 -20 37 -23 145 -2
84 0 126 7 124 6 -2 119 -70 252 -153 l242 -150 0 -157 1 -157 60 -36 60 -36
0 -120 c0 -94 -3 -119 -12 -113 -56 34 -560 362 -586 381 -18 13 -56 37 -85
52 -28 15 -90 52 -137 83 -184 120 -826 532 -845 542 -11 6 -101 63 -200 127
-99 64 -213 137 -252 162 -64 41 -73 50 -73 77 0 16 -4 30 -10 30 -5 0 -10 -9
-10 -21 0 -16 -4 -19 -17 -15 -10 4 -122 74 -249 156 -128 83 -237 150 -243
150 -7 0 -11 -28 -11 -74 l0 -74 -95 -60 -95 -61 0 67 c0 45 5 75 15 88 8 10
15 27 15 37 0 27 -30 67 -51 67 -22 0 -21 5 -19 -166 l1 -121 -98 -63 c-54
-34 -117 -76 -140 -92 l-43 -29 0 298 c0 164 -3 328 -6 365 -7 66 -6 68 19 77
45 17 45 91 1 91 -8 0 -14 3 -14 8 0 4 -2 221 -4 483 l-2 476 28 16 c33 19 67
87 68 135 0 48 -26 91 -66 108 l-34 14 0 115 c0 94 3 115 15 115 26 0 81 66
95 114 24 88 0 157 -73 205 l-37 24 0 184 0 183 40 25 c51 32 60 51 60 129 0
86 16 97 80 55 50 -32 50 -32 85 -75 l25 -32 0 -872 c0 -779 -2 -873 -16 -887
-10 -11 -13 -24 -9 -42 12 -46 54 -56 79 -19 18 25 21 68 6 68 -7 0 -10 230
-10 670 0 575 2 670 14 670 16 0 31 34 21 50 -3 5 -13 10 -21 10 -12 0 -14 29
-14 170 0 94 3 170 6 170 12 0 144 -83 144 -91 0 -4 -10 -13 -21 -20 -17 -9
-19 -13 -8 -20 9 -6 10 -12 4 -16 -5 -5 -17 -17 -25 -27 -17 -22 -9 -19 42 16
15 10 44 25 65 32 37 13 39 13 76 -20 23 -19 55 -35 78 -39 l39 -7 0 -204 c0
-200 0 -204 -21 -204 -11 0 -39 16 -62 35 -44 38 -70 45 -65 18 2 -10 27 -29
55 -43 29 -14 53 -30 53 -37 0 -7 9 -17 20 -23 19 -10 20 -21 20 -404 0 -327
-2 -396 -14 -405 -14 -12 -9 -52 11 -83 4 -7 6 -37 4 -65 -3 -54 2 -60 29 -43
13 8 15 74 15 492 l0 483 23 -2 c28 -3 30 22 2 39 -19 12 -20 24 -20 235 l0
222 34 16 c139 66 224 262 168 388 -21 48 -64 83 -114 93 -24 6 -26 10 -21 40
5 33 5 34 -28 34 -48 0 -129 -41 -173 -86 -69 -70 -117 -175 -86 -186 7 -2 7
-21 0 -58 -6 -30 -8 -77 -4 -105 l6 -49 -23 17 c-13 9 -57 38 -96 64 -60 39
-74 54 -79 81 -4 21 -12 32 -24 32 -14 0 -16 9 -14 58 2 31 3 74 4 95 0 32 3
37 23 37 14 0 28 8 33 20 5 11 158 114 339 230 411 264 485 312 485 321 0 14
-30 30 -42 23 -7 -4 -56 -35 -108 -69 -52 -34 -153 -99 -225 -145 -71 -46
-202 -130 -290 -188 -88 -58 -172 -108 -187 -113 -34 -9 -36 -3 -40 119 -1 71
1 95 12 102 8 5 14 23 13 42 -1 36 -2 35 170 146 l67 44 30 -32 c28 -30 34
-32 79 -28 30 3 60 14 77 27 34 26 74 88 74 114 0 9 4 17 9 17 5 0 44 24 87
53 44 29 127 84 187 121 73 47 107 75 107 88 0 10 -5 18 -10 18 -11 0 -294
-176 -347 -216 l-32 -25 -20 39 c-26 52 -67 69 -121 53 -62 -18 -104 -73 -124
-161 -5 -19 -39 -46 -134 -106 -70 -45 -137 -87 -149 -93 -29 -15 -39 -55 -23
-89 18 -39 13 -230 -6 -250 -8 -8 -12 -22 -9 -33 4 -13 2 -19 -9 -19 -9 0 -16
-4 -16 -10 0 -5 -31 -31 -70 -56 l-70 -47 -27 28 c-16 15 -38 34 -50 42 -22
15 -23 22 -23 139 0 117 -1 124 -20 124 -19 0 -20 -7 -20 -125 l0 -125 -26
-10 c-23 -9 -41 -1 -167 80 -77 49 -146 90 -153 90 -8 0 -14 -9 -14 -19 0 -14
39 -44 135 -106 l135 -87 -25 -32 c-57 -75 -71 -165 -35 -238 11 -23 17 -45
13 -49 -5 -3 -50 -34 -100 -68 -65 -43 -93 -67 -93 -81 0 -11 4 -20 9 -20 4 0
66 36 136 80 70 44 132 80 136 80 18 0 8 19 -26 53 -31 31 -35 41 -35 86 0 58
13 93 51 138 l28 32 29 -47 c54 -87 83 -143 80 -152 -2 -5 -21 -22 -42 -37
l-40 -29 3 -194 2 -195 -50 -23 c-81 -36 -125 -132 -102 -219 13 -48 79 -113
115 -113 20 0 24 -6 30 -46 3 -26 6 -75 6 -109 0 -60 -1 -62 -37 -86 -53 -35
-75 -70 -81 -130 -8 -81 34 -139 98 -139 20 0 20 -10 20 -472 0 -345 -3 -481
-12 -505 -10 -27 -10 -38 0 -53 9 -15 12 -120 12 -404 l0 -384 -162 -103 c-90
-56 -167 -105 -171 -109 -11 -10 153 -128 201 -146 3 -1 -84 -203 -119 -278
-26 -57 -17 -77 27 -57 28 12 197 120 389 246 124 82 154 99 162 91 3 -3 -2
-12 -11 -21 -30 -30 -14 -78 30 -89 28 -7 48 4 65 36 9 16 4 25 -26 54 -32 29
-35 37 -24 50 18 22 121 94 196 138 60 35 64 36 92 21 42 -21 196 -118 411
-260 233 -153 519 -338 671 -435 65 -41 164 -105 221 -141 226 -146 402 -258
578 -369 354 -224 658 -419 724 -465 l66 -46 32 24 c18 14 106 70 194 126 89
55 210 132 269 170 l107 69 43 -30 44 -31 -22 -17 c-12 -10 -107 -72 -212
-140 -104 -67 -246 -160 -316 -206 -91 -61 -134 -84 -157 -84 -25 0 -33 -5
-38 -24 -8 -32 1 -58 26 -73 27 -18 70 3 76 37 4 18 26 38 77 72 40 25 164
106 277 179 113 72 237 153 276 179 l72 47 108 -75 c60 -41 135 -90 167 -109
31 -19 57 -35 57 -37 0 -2 -50 -37 -112 -77 -61 -41 -255 -169 -430 -286 -313
-209 -319 -212 -338 -193 -10 10 -33 26 -49 35 -17 8 -31 17 -31 20 0 5 243
171 505 345 110 73 217 146 238 162 40 32 52 74 19 66 -20 -6 -523 -339 -711
-471 -114 -80 -115 -81 -182 -83 -53 -2 -73 1 -91 15 -32 25 -425 286 -533
354 -50 31 -96 57 -103 57 -7 0 -12 -9 -12 -20 0 -15 70 -66 288 -211 158
-105 300 -199 315 -210 l28 -21 -45 -35 c-25 -20 -46 -40 -46 -45 0 -5 -24 9
-52 30 -46 34 -319 215 -730 485 -64 42 -119 81 -122 85 -3 5 24 25 60 46 35
21 69 47 75 57 10 19 9 20 -27 31 -6 2 -126 79 -265 171 -140 93 -445 293
-679 446 -692 451 -710 464 -702 481 3 8 7 39 7 68 0 48 -3 57 -33 83 -75 67
-172 16 -172 -91 0 -34 6 -48 34 -76 28 -28 42 -34 75 -34 41 0 117 -45 416
-250 88 -60 171 -114 480 -315 293 -190 418 -271 600 -391 l185 -121 -54 -38
-54 -37 -204 135 c-112 74 -311 205 -443 290 -132 86 -339 221 -460 300 -121
79 -305 200 -410 267 -104 67 -233 151 -285 186 -53 35 -101 64 -107 64 -13 0
-53 -47 -53 -62 0 -6 7 -8 15 -4 9 3 69 -29 148 -80 277 -179 469 -303 647
-420 102 -67 277 -181 390 -254 113 -73 275 -179 360 -234 85 -56 197 -128
248 -160 50 -32 92 -60 92 -61 0 -1 -24 -19 -54 -40 l-54 -37 -83 55 c-46 29
-172 111 -279 182 -543 356 -789 517 -1215 792 -249 160 -302 193 -312 193 -5
0 -18 -9 -28 -20 -19 -21 -41 -6 697 -485 161 -104 430 -279 598 -389 168
-109 362 -235 432 -280 70 -45 128 -83 127 -86 0 -3 -30 -24 -66 -47 -60 -39
-67 -41 -86 -28 -12 8 -39 15 -60 15 -31 0 -46 -7 -73 -34 -28 -28 -34 -41
-34 -77 0 -105 105 -166 179 -104 34 30 55 83 47 123 -5 25 0 31 68 74 l75 46
78 -53 c43 -29 119 -78 168 -110 50 -32 236 -153 415 -270 179 -116 346 -224
372 -241 48 -29 60 -44 35 -44 -23 0 -49 -34 -35 -48 8 -8 19 -5 43 14 17 13
34 24 37 24 2 0 19 -20 36 -44 38 -52 85 -84 150 -100 l47 -12 3 -63 c3 -52 6
-62 20 -59 13 3 18 16 20 66 3 57 5 62 26 62 42 0 126 51 166 101 21 27 40 54
43 61 3 9 18 0 45 -26 39 -37 62 -41 62 -10 0 8 -20 24 -45 36 -25 12 -45 29
-45 37 0 10 75 63 178 129 264 169 344 221 603 392 l235 156 110 -73 c60 -40
116 -81 124 -91 25 -30 63 -52 90 -52 63 0 130 68 130 133 0 58 -27 92 -126
157 -52 33 -92 65 -90 69 6 9 -14 -4 407 274 180 119 330 220 333 226 6 8 57
-21 116 -66 2 -2 0 -7 -6 -11 -38 -25 -47 -133 -14 -175 51 -65 156 -53 198
22 26 45 27 71 7 111 -20 39 -60 68 -103 76 -41 8 -137 73 -125 84 12 12 704
462 926 604 52 33 57 38 43 52 -9 8 -16 20 -16 26 0 5 -7 8 -15 4 -17 -6 -516
-332 -793 -517 -106 -71 -199 -129 -207 -129 -8 0 -18 -6 -22 -13 -4 -8 -177
-125 -383 -261 -206 -136 -380 -254 -387 -263 -10 -13 -20 -9 -72 27 l-61 41
202 132 c446 291 556 363 618 407 36 25 108 72 160 105 152 94 863 565 886
586 24 23 4 34 291 -156 91 -60 173 -114 182 -120 9 -5 28 -18 42 -27 26 -17
49 -9 49 17 0 16 -80 77 -94 72 -9 -4 -27 23 -54 81 -54 115 -102 228 -102
239 0 5 47 38 105 73 57 36 103 70 102 75 -3 9 -149 108 -275 186 l-58 35 4
390 c1 214 2 407 1 429 -4 60 -4 161 -1 583 2 336 4 382 17 382 27 0 67 33 81
67 31 74 3 164 -66 209 -32 22 -40 32 -36 48 3 12 6 60 6 109 0 76 2 87 18 87
58 0 122 85 122 162 0 78 -77 198 -126 198 -8 0 -14 3 -14 8 -1 4 -1 61 -2
126 l-2 120 31 8 c16 4 42 19 56 34 l26 25 96 -60 c54 -34 101 -61 105 -61 12
0 22 32 13 40 -4 4 -48 33 -97 64 -79 51 -87 59 -80 79 5 12 8 58 9 102 0 75
-2 85 -37 142 l-36 62 125 81 c113 73 124 83 111 96 -14 14 -23 11 -84 -27
-144 -88 -180 -108 -205 -114 l-26 -6 -5 166 c-3 91 -8 169 -12 172 -3 4 -12
1 -18 -5 -10 -10 -10 -17 0 -33 10 -16 10 -22 -3 -35 -12 -12 -15 -40 -15
-130 0 -92 -3 -114 -14 -114 -8 0 -28 -11 -44 -25 l-30 -25 -74 43 c-40 23
-78 54 -85 67 -7 14 -19 30 -27 36 -11 7 -16 34 -18 90 -2 62 -6 79 -18 79
-12 0 -16 -17 -18 -77 -2 -43 -7 -78 -12 -78 -8 0 -229 141 -420 268 -47 32
-90 68 -97 82 -12 25 -48 44 -64 34 -13 -8 -758 472 -796 513 -17 19 -43 37
-58 41 -14 4 -82 43 -150 87 l-124 80 -1 113 c0 105 -1 112 -20 112 -19 0 -20
-7 -20 -95 0 -52 -3 -95 -7 -94 -19 1 -207 127 -217 144 -15 26 -27 35 -51 35
-18 0 -301 176 -714 443 -119 77 -138 93 -163 138 -47 87 -57 92 -113 62z m6
-123 c37 -20 16 -120 -26 -120 -21 0 -38 29 -37 60 2 66 19 83 63 60z m1129
-686 c118 -74 120 -76 120 -113 0 -36 -1 -37 -32 -33 -42 5 -97 -31 -120 -78
-50 -99 13 -280 117 -335 27 -15 34 -26 39 -63 3 -25 6 -55 6 -68 l0 -23 -50
29 c-145 86 -200 126 -200 146 0 11 -2 23 -5 26 -8 8 -10 512 -2 525 4 7 5 24
1 38 -3 14 -3 25 0 25 4 0 61 -34 126 -76z m-919 -115 c134 -83 314 -197 399
-252 85 -55 189 -122 231 -149 110 -71 110 -71 107 -167 l-3 -81 -95 63 c-92
61 -481 309 -744 476 l-129 82 -51 -34 c-28 -19 -134 -87 -236 -152 -102 -65
-218 -139 -257 -165 l-73 -48 0 106 0 107 30 15 c16 8 80 49 142 90 229 153
413 269 424 265 7 -2 121 -72 255 -156z m-898 -72 c5 -59 3 -68 -14 -77 -11
-6 -19 -21 -19 -35 0 -28 -12 -37 -155 -125 -152 -94 -251 -158 -339 -218
l-76 -53 0 105 c0 59 -4 108 -10 111 -5 3 -10 25 -10 48 1 91 76 187 148 187
55 0 82 -28 82 -87 0 -61 -31 -125 -81 -164 -21 -17 -39 -35 -39 -40 0 -17 35
-9 71 15 52 35 88 94 100 162 l10 60 139 93 c77 51 145 100 151 107 19 23 36
-12 42 -89z m2093 13 c57 -39 102 -75 99 -80 -3 -6 4 -15 17 -20 l23 -11 -3
-297 c-2 -163 -5 -298 -6 -300 -2 -2 -24 9 -48 24 -46 29 -180 116 -187 121
-2 2 -4 33 -4 70 l1 67 33 9 c77 20 113 82 107 182 -6 86 -41 158 -105 215
-30 26 -43 45 -43 64 0 14 2 26 5 26 3 0 53 -32 111 -70z m-1259 -141 c87 -56
178 -114 203 -129 75 -45 530 -338 543 -350 5 -4 -18 -22 -50 -41 -124 -70
-499 -294 -773 -461 -85 -52 -243 -148 -350 -213 -254 -153 -349 -213 -383
-241 l-28 -24 -34 23 c-19 12 -34 25 -32 29 2 7 230 148 582 361 83 50 274
167 425 260 151 94 321 197 377 231 81 48 100 63 90 73 -6 7 -61 43 -122 81
-60 38 -222 139 -359 225 -136 86 -252 157 -256 157 -10 0 -115 -62 -266 -158
-67 -42 -201 -126 -298 -187 -97 -60 -176 -113 -176 -117 0 -4 39 -33 88 -64
213 -140 458 -297 523 -335 67 -39 70 -42 54 -59 -9 -10 -30 -24 -46 -30 -27
-12 -36 -8 -142 56 -104 63 -253 156 -472 294 -49 31 -96 60 -103 64 -6 4 -24
-1 -40 -12 -15 -11 -72 -46 -127 -79 -55 -33 -193 -119 -308 -191 l-207 -130
87 -58 c49 -31 185 -119 303 -194 118 -75 292 -187 387 -249 167 -110 172
-114 157 -135 -12 -18 -14 -76 -14 -366 0 -190 0 -353 0 -363 0 -16 -2 -16
-39 2 -21 11 -41 27 -45 36 -3 9 -6 165 -6 346 l0 329 -82 54 c-46 30 -162
103 -258 163 -344 214 -660 421 -660 431 1 4 31 25 68 46 37 22 285 179 552
349 267 171 598 382 735 470 138 87 266 170 285 183 19 13 40 24 47 24 7 0 83
-46 170 -101z m1166 -24 c24 -42 24 -45 7 -45 -13 0 -17 5 -14 14 3 8 -2 28
-11 45 -24 48 -10 37 18 -14z m-40 29 c3 -4 2 -15 -3 -25 -7 -12 -6 -22 5 -33
17 -16 20 -36 6 -36 -17 0 -35 33 -37 66 -1 31 13 44 29 28z m557 -144 c107
-70 271 -175 363 -235 93 -59 175 -118 184 -131 8 -13 22 -24 29 -24 17 0 15
10 20 -119 4 -99 3 -105 -22 -134 -24 -28 -26 -37 -22 -103 3 -61 8 -79 34
-116 74 -106 178 -126 238 -45 39 53 20 165 -40 236 -29 35 -92 71 -124 71
-16 0 -20 7 -22 38 -4 91 -2 142 6 142 4 0 75 -44 157 -97 82 -54 191 -125
242 -158 64 -42 93 -67 95 -83 2 -14 13 -24 28 -28 l25 -6 -3 -137 c-3 -132
-4 -136 -25 -139 -31 -5 -30 -36 2 -68 l25 -25 0 -760 c0 -667 -2 -764 -16
-790 -15 -30 -11 -69 7 -69 13 0 12 -387 -1 -395 -6 -4 -51 19 -100 50 l-90
57 0 319 c0 281 2 319 15 319 63 0 123 88 111 162 -11 71 -57 141 -103 159
l-23 9 0 410 0 411 30 11 c22 7 33 18 37 39 3 16 14 31 24 34 11 4 19 10 19
15 0 14 -18 21 -25 10 -3 -5 -17 -10 -30 -10 -13 0 -26 -6 -28 -12 -4 -8 -8
-4 -12 10 -4 12 -10 22 -14 22 -6 0 -48 30 -145 104 -7 5 -31 -4 -63 -24 -33
-20 -71 -34 -105 -38 l-53 -7 -3 -48 c-3 -44 -1 -48 25 -58 15 -6 42 -8 59 -4
29 5 32 3 38 -26 13 -66 5 -119 -19 -119 -15 0 -28 -27 -19 -41 3 -6 14 -7 25
-4 19 6 19 -9 19 -751 0 -720 -1 -756 -17 -742 -10 8 -51 34 -90 58 l-73 42 0
629 c0 603 1 629 18 629 14 0 19 8 19 28 0 15 2 33 4 40 3 9 -17 20 -56 33
-36 12 -113 55 -190 107 l-130 87 -3 132 -3 131 -125 81 c-69 45 -129 79 -133
77 -4 -3 -65 32 -134 77 -70 45 -181 116 -246 157 l-120 75 -1 93 c0 50 2 92
5 92 7 0 91 -53 229 -143 68 -45 236 -153 373 -239 l249 -157 43 -86 c29 -60
62 -107 109 -155 37 -39 72 -70 78 -70 12 0 24 44 24 83 0 12 -17 39 -37 62
l-38 40 35 -31 c76 -68 156 -85 186 -39 23 35 14 49 -56 86 -107 57 -155 142
-155 274 1 66 6 91 28 139 19 41 24 62 17 71 -5 7 -91 63 -190 126 -99 63
-213 135 -253 160 -39 26 -75 45 -79 42 -10 -5 -10 -215 0 -229 4 -5 66 -48
137 -94 72 -46 135 -88 141 -94 8 -8 9 -45 5 -118 l-6 -108 -85 58 c-47 31
-153 99 -235 151 -124 78 -182 118 -235 159 -3 2 -4 135 -2 295 1 161 2 298 2
305 0 17 8 13 240 -138z m-626 107 c-2 -59 -3 -64 -15 -44 -10 18 -3 77 9 77
4 0 7 -15 6 -33z m-1894 -121 l0 -104 -62 -40 c-35 -22 -127 -81 -205 -131
-79 -50 -145 -91 -148 -91 -3 0 -5 46 -5 103 l0 102 140 90 c77 50 168 109
202 132 35 22 66 41 71 42 4 1 7 -46 7 -103z m2018 48 c19 -6 22 -11 17 -33
-10 -39 -22 -46 -17 -10 3 20 1 30 -6 26 -5 -4 -15 0 -22 8 -14 16 -8 18 28 9z
m-93 -29 c0 -20 -2 -22 -14 -11 -7 8 -10 19 -7 25 12 18 21 12 21 -14z m35 3
c0 -16 -3 -19 -11 -11 -6 6 -8 16 -5 22 11 17 16 13 16 -11z m-3797 -130 c18
-37 18 -39 0 -75 -10 -20 -30 -46 -45 -57 -23 -16 -32 -18 -53 -8 -39 18 -50
57 -30 109 31 82 96 97 128 31z m2487 -58 c0 -16 -4 -30 -10 -30 -5 0 -100
-58 -210 -130 -192 -124 -231 -143 -245 -120 -10 17 10 35 103 93 48 30 145
91 216 136 71 44 133 81 137 81 5 0 9 -13 9 -30z m120 -7 c30 -20 120 -78 200
-128 191 -119 192 -119 184 -138 -11 -29 -29 -24 -109 28 -44 29 -140 91 -212
139 -112 72 -133 90 -133 111 0 14 3 25 8 25 4 0 32 -17 62 -37z m975 -4 c22
-14 77 -49 122 -78 l82 -53 -1 -89 c0 -49 -4 -89 -7 -89 -9 0 -91 50 -183 110
-57 38 -68 49 -73 79 -9 56 -3 161 10 153 6 -4 28 -19 50 -33z m-2207 -121
l-3 -103 -50 -33 c-93 -62 -85 -66 -84 50 l0 103 62 41 c34 23 66 42 70 43 4
0 6 -45 5 -101z m1112 -65 l0 -118 -90 -58 c-49 -31 -96 -60 -104 -63 -8 -3
-30 5 -48 18 -44 31 -66 44 -110 64 -21 9 -38 19 -38 23 1 3 35 28 78 56 114
73 307 195 310 195 1 0 2 -53 2 -117z m368 -86 l63 -40 -96 -59 -97 -59 -88
58 c-101 66 -100 65 -100 209 l0 94 128 -82 c70 -44 155 -99 190 -121z m602
21 c0 -49 -3 -55 -33 -74 -17 -11 -63 -41 -102 -65 l-70 -45 -31 20 c-18 12
-40 26 -50 32 -15 9 0 21 107 82 68 39 133 78 144 86 31 24 35 20 35 -36z
m336 -147 c-3 -5 4 -8 17 -8 18 1 321 -179 430 -256 l28 -19 -65 -44 -65 -44
-43 29 c-88 58 -245 158 -308 196 -89 53 -234 150 -254 170 -12 12 -15 29 -11
68 2 29 4 62 5 74 0 19 17 10 135 -68 75 -49 134 -93 131 -98z m-1212 14 c34
-19 72 -43 86 -54 l24 -19 -26 -12 c-23 -11 -31 -9 -70 17 -83 57 -79 57 -154
13 -68 -40 -120 -52 -112 -27 5 13 165 117 181 117 6 0 38 -16 71 -35z m885
-12 c-1 -21 -3 -66 -6 -100 l-4 -61 -78 46 -78 46 55 33 c29 18 66 41 80 52
15 11 28 21 29 21 1 0 2 -17 2 -37z m-269 -65 c52 -30 154 -93 227 -139 72
-46 140 -89 150 -96 17 -11 17 -12 -2 -27 -34 -28 -124 -86 -250 -161 -66 -40
-232 -142 -370 -227 -137 -85 -277 -170 -310 -190 l-60 -35 -230 143 c-272
168 -276 171 -255 184 8 6 141 86 295 179 394 237 646 390 675 411 14 10 27
17 30 15 3 -1 48 -27 100 -57z m-633 7 c46 -28 55 -50 23 -60 -11 -4 -32 -17
-47 -31 -14 -13 -30 -24 -34 -24 -15 0 -99 63 -99 74 0 13 79 66 99 66 8 0 34
-11 58 -25z m988 6 c3 -6 83 -58 178 -117 326 -203 358 -225 347 -239 -6 -7
-23 -18 -39 -25 -26 -10 -38 -5 -205 99 -210 132 -292 187 -303 203 -12 21
-10 88 4 88 6 0 14 -4 18 -9z m-1903 -86 c-8 -46 6 -91 34 -104 26 -11 26 -12
-48 -66 -76 -55 -114 -71 -134 -58 -6 5 -14 40 -18 79 -7 70 -6 71 21 90 53
35 137 84 144 84 3 0 4 -11 1 -25z m231 -67 c37 -25 57 -46 57 -58 0 -11 -3
-20 -7 -20 -4 0 -49 25 -100 56 -59 36 -93 63 -93 74 0 39 14 34 143 -52z
m-1863 8 c0 -2 -7 -7 -16 -10 -8 -3 -12 -2 -9 4 6 10 25 14 25 6z m3590 -57
c23 -19 22 -19 -18 2 -24 13 -49 30 -55 38 -16 19 38 -10 73 -40z m2071 -6
c76 -46 80 -50 74 -77 -3 -16 -12 -38 -21 -47 -22 -24 -131 -89 -138 -81 -7 7
-8 252 -1 252 3 0 42 -21 86 -47z m-6175 -140 c-3 -3 -20 6 -38 20 -18 14 -46
31 -62 37 -33 12 -32 14 44 67 l55 39 3 -79 c2 -44 1 -82 -2 -84z m1934 42 l0
-115 -87 56 c-49 31 -90 58 -91 59 -5 4 159 113 171 114 4 1 7 -51 7 -114z
m467 -20 c62 -39 113 -73 113 -78 0 -9 -151 -107 -167 -107 -6 0 -70 37 -142
82 l-130 82 87 57 c75 49 90 55 107 45 11 -7 71 -43 132 -81z m1949 -25 c110
-69 110 -70 97 -76 -7 -3 -40 -24 -75 -46 -35 -23 -91 -58 -125 -79 l-63 -39
0 171 0 170 48 -28 c26 -15 79 -48 118 -73z m546 49 c38 -23 84 -53 101 -69
l31 -27 4 -207 c3 -113 1 -206 -3 -206 -11 0 -96 49 -117 68 -24 20 -26 169
-4 178 18 7 28 62 20 113 -6 34 -14 45 -54 71 -56 36 -60 36 -108 6 -161 -103
-474 -286 -490 -286 -10 0 -26 8 -35 18 -18 20 -53 -4 363 250 91 55 174 108
185 116 28 21 28 21 107 -25z m1575 24 c43 -56 60 -111 55 -188 -4 -60 -14
-62 -86 -17 -36 23 -70 42 -76 42 -5 0 -10 2 -10 5 0 16 89 175 97 175 3 0 12
-8 20 -17z m-4425 -109 c65 -38 128 -76 211 -127 l49 -30 -47 -29 -46 -28 -72
46 c-176 112 -166 104 -167 157 0 26 2 47 4 47 3 0 33 -16 68 -36z m4228 -1
c0 -10 5 -35 10 -55 9 -30 16 -38 43 -44 17 -3 35 -12 39 -18 12 -17 9 -86 -2
-86 -16 0 -77 34 -145 79 -69 47 -88 51 -83 19 3 -24 90 -88 186 -136 l52 -26
0 -122 0 -122 -27 -7 c-70 -17 -113 -83 -113 -173 0 -63 43 -138 99 -172 l40
-25 1 -106 0 -105 -43 -21 c-73 -35 -96 -115 -58 -199 19 -42 63 -84 87 -84
12 0 14 -78 14 -461 l0 -460 -35 -15 c-19 -8 -35 -20 -35 -26 0 -16 41 -58 57
-58 11 0 13 -69 13 -365 l0 -365 -87 57 c-49 31 -114 72 -147 92 l-59 35 7
105 c8 127 1 171 -25 171 -18 0 -19 -9 -19 -120 0 -66 -2 -120 -4 -120 -3 0
-50 27 -105 61 l-101 61 0 43 c0 38 4 46 29 61 28 17 45 47 33 58 -3 4 -12 0
-21 -8 -9 -8 -65 -45 -126 -81 -60 -37 -113 -69 -117 -72 -5 -2 -8 14 -8 35 0
39 0 40 98 97 53 32 116 71 140 87 42 29 42 29 42 92 0 62 0 62 -36 80 l-37
17 7 76 c3 42 6 109 6 149 l0 73 68 -40 c43 -25 69 -47 72 -62 4 -15 15 -23
32 -25 l27 -3 3 -169 c3 -164 2 -169 -19 -190 -28 -27 -29 -42 -4 -64 31 -28
75 -9 79 33 2 18 -1 38 -6 44 -18 22 -15 281 4 347 15 55 15 60 0 76 -15 14
-16 39 -13 208 3 105 8 207 12 227 4 23 3 39 -4 43 -8 5 -11 231 -11 780 0
760 0 773 20 791 11 10 20 25 20 34 1 15 111 88 138 90 6 1 12 -7 12 -16z
m-1425 -42 c9 -15 -441 -291 -475 -291 -29 0 -36 21 -12 40 11 10 110 70 219
135 109 65 204 124 212 131 14 13 43 5 56 -15z m-3187 -52 c48 -31 52 -37 54
-74 1 -37 2 -37 5 -7 2 17 6 32 9 32 6 0 16 -7 164 -100 291 -185 270 -168
270 -210 0 -20 -3 -39 -6 -43 -6 -6 -141 75 -324 194 -58 38 -142 92 -187 120
l-83 50 0 51 c0 57 -12 59 98 -13z m4088 -30 c3 -6 20 -19 37 -29 l31 -19 -27
-10 c-19 -8 -27 -18 -27 -35 0 -18 -9 -30 -29 -40 -16 -9 -42 -27 -59 -41
l-30 -25 -7 55 c-3 30 -11 58 -17 61 -5 3 13 19 40 35 27 15 52 35 55 43 7 18
23 21 33 5z m709 -35 c20 -15 20 -15 1 -30 -31 -22 -46 -17 -46 16 0 33 14 38
45 14z m-4815 -83 l45 -27 3 -257 c1 -141 -1 -257 -5 -257 -4 0 -33 17 -64 38
l-58 37 -1 258 c0 243 1 257 18 247 9 -6 37 -23 62 -39z m3200 -26 c0 -25 -2
-45 -5 -45 -3 0 -19 10 -36 22 l-29 22 27 23 c16 12 31 22 36 23 4 0 7 -20 7
-45z m-2330 10 c0 -18 -12 -34 -42 -55 -41 -30 -83 -37 -83 -13 0 11 102 92
118 93 4 0 7 -11 7 -25z m84 6 c3 -5 68 -46 143 -92 76 -46 171 -104 211 -130
39 -26 77 -49 84 -51 10 -4 15 -65 5 -74 -4 -4 -227 131 -404 245 -66 42 -73
49 -73 79 0 31 21 45 34 23z m1354 -30 c-18 -9 -35 -12 -37 -7 -6 15 28 34 50
29 17 -5 15 -8 -13 -22z m1852 -386 c0 -369 -1 -395 -17 -395 -28 -1 -63 -24
-84 -56 -44 -68 -10 -204 65 -255 l36 -24 0 -312 c0 -172 -2 -313 -5 -313 -3
0 -40 23 -81 51 l-75 50 3 776 3 776 75 48 c41 26 76 48 78 48 1 1 2 -177 2
-394z m-1521 330 c51 -30 95 -55 97 -55 2 0 52 -31 111 -68 60 -38 141 -88
182 -112 l74 -42 -68 -44 c-37 -24 -73 -41 -79 -37 -6 4 -83 53 -171 108 -88
56 -179 112 -201 124 -34 19 -43 30 -48 60 -8 51 -7 121 2 121 4 0 49 -25 101
-55z m-430 4 c-21 -18 -35 -25 -38 -18 -2 6 3 15 10 20 8 4 23 14 34 22 34 26
30 8 -6 -24z m131 25 c0 -9 -10 -19 -22 -22 -23 -6 -23 -6 2 -13 22 -6 20 -7
-12 -8 -46 -1 -51 21 -10 43 35 20 42 19 42 0z m1353 -152 c23 -21 22 -31 -8
-42 -14 -5 -25 -14 -25 -19 0 -16 27 -32 44 -25 15 6 16 -19 16 -272 1 -154 3
-419 6 -591 3 -171 2 -318 -3 -327 -7 -13 -26 -4 -111 51 -77 51 -98 69 -87
76 13 7 15 77 15 547 l0 540 -50 28 c-27 15 -52 35 -56 44 -3 10 -2 49 2 87
l6 69 117 -75 c64 -41 124 -82 134 -91z m-4575 146 c22 -22 14 -68 -17 -99
-34 -33 -43 -35 -65 -13 -23 23 -19 58 10 93 27 33 52 39 72 19z m1079 -234
l1 -179 51 -33 51 -33 0 -74 c0 -41 -4 -75 -10 -75 -5 0 -51 27 -102 60 l-93
59 0 259 0 259 50 -32 50 -33 2 -178z m2959 202 c38 -24 122 -76 186 -116 65
-40 116 -76 113 -80 -9 -14 -104 -74 -345 -218 -129 -76 -307 -184 -395 -238
-88 -55 -185 -114 -215 -131 l-56 -31 -94 59 c-52 32 -159 97 -237 145 l-143
86 0 94 0 95 23 -12 c57 -31 199 -117 262 -159 128 -86 250 -157 263 -152 6 2
12 9 11 15 0 13 -65 62 -128 99 -22 13 -41 26 -41 29 0 14 89 71 355 230 l30
18 82 -52 c73 -46 102 -77 73 -77 -5 0 -25 -14 -45 -31 -55 -49 -29 -58 47
-17 100 55 280 166 318 197 l35 28 -25 13 c-42 21 -280 175 -280 180 1 9 104
68 121 69 8 1 47 -19 85 -43z m-916 4 c0 -5 -7 -10 -16 -10 -8 0 -12 5 -9 10
3 6 10 10 16 10 5 0 9 -4 9 -10z m0 -30 c0 -5 -9 -10 -19 -10 -11 0 -26 -3
-35 -6 -9 -3 -16 -1 -16 4 0 11 21 19 53 21 9 0 17 -3 17 -9z m100 0 c0 -5 -6
-10 -12 -10 -10 0 -10 -2 0 -9 11 -6 7 -13 -16 -30 -40 -28 -42 -27 -42 13 0
28 4 35 23 39 39 8 47 7 47 -3z m505 0 c3 -5 -1 -10 -10 -10 -9 0 -13 5 -10
10 3 6 8 10 10 10 2 0 7 -4 10 -10z m-1858 -42 l53 -32 0 -152 c0 -83 -3 -233
-7 -333 l-6 -181 -49 -30 c-26 -17 -50 -30 -53 -30 -3 0 -5 178 -5 395 0 217
3 395 7 395 4 0 31 -14 60 -32z m1253 12 c0 -5 -9 -10 -19 -10 -11 0 -26 -3
-35 -6 -9 -3 -16 -1 -16 4 0 9 20 17 58 21 6 0 12 -3 12 -9z m-1835 -98 c76
-45 101 -65 106 -86 11 -40 9 -228 -2 -249 -9 -16 -12 -16 -42 -1 -18 9 -57
34 -87 54 -30 20 -74 47 -97 59 l-43 21 0 151 0 151 33 -20 c17 -11 77 -47
132 -80z m-775 -16 c0 -102 0 -104 -27 -122 -55 -36 -222 -207 -266 -272 -145
-217 -197 -384 -197 -638 l0 -123 -30 -16 -30 -16 0 411 c0 455 -3 436 64 385
31 -24 66 -33 66 -18 0 15 -33 41 -46 36 -10 -3 -16 5 -20 26 -4 17 -12 31
-19 31 -13 0 -51 38 -44 44 2 2 75 50 162 106 119 77 161 100 170 91 6 -6 24
-11 40 -11 51 0 122 93 87 115 -5 3 -10 10 -10 15 0 8 78 59 93 60 4 0 7 -47
7 -104z m2820 74 c0 -19 -5 -30 -14 -30 -8 0 -18 -5 -22 -11 -4 -8 0 -9 15 -4
30 9 26 -10 -8 -34 -44 -32 -54 -28 -46 20 5 27 17 50 34 65 34 31 41 30 41
-6z m628 -73 c51 -33 91 -62 89 -64 -9 -8 -91 37 -245 134 -12 7 -20 18 -17
24 7 11 33 -3 173 -94z m-838 78 c0 -9 -12 -27 -27 -41 -25 -23 -28 -24 -34
-7 -13 32 -10 41 19 51 38 14 42 14 42 -3z m106 -34 c-3 -4 -2 -21 2 -37 12
-45 4 -63 -40 -85 -22 -11 -41 -19 -43 -17 -2 2 -1 15 2 30 3 17 15 31 34 39
34 14 52 35 23 27 -10 -3 -27 -9 -36 -13 -31 -13 -20 18 15 42 34 23 52 29 43
14z m-1158 -61 l72 -45 0 -102 c0 -134 18 -146 22 -14 l3 100 58 -35 57 -36 0
-374 c0 -268 3 -374 11 -374 9 0 126 66 207 118 l22 14 0 -170 0 -171 -52 35
c-29 18 -94 60 -145 91 -50 32 -148 94 -217 138 l-126 80 0 113 c0 61 4 112 9
112 4 0 25 -11 45 -25 44 -30 46 -30 46 -6 0 11 -20 34 -50 55 l-50 36 0 116
c0 64 3 114 8 112 46 -21 131 -69 139 -80 15 -18 21 -198 7 -198 -13 0 -39
-28 -47 -51 -3 -10 6 -30 23 -50 27 -31 29 -41 30 -111 0 -42 5 -80 10 -83 6
-4 10 21 10 68 0 70 1 74 30 95 40 30 40 67 -1 118 -30 38 -31 40 -23 114 13
131 20 117 -88 182 l-98 59 0 111 c0 60 4 108 8 106 4 -1 40 -23 80 -48z m687
-5 c-31 -26 -45 -31 -45 -17 0 9 51 42 65 41 6 0 -3 -11 -20 -24z m345 -20
c-7 -8 -22 -15 -34 -15 -19 1 -19 3 9 27 29 26 49 17 25 -12z m241 23 c3 -27
-4 -43 -21 -55 -11 -8 -26 -21 -35 -29 -19 -19 -20 -18 -28 24 -5 23 -3 32 7
32 8 0 24 9 37 20 28 23 39 25 40 8z m-558 -33 c-3 -8 -13 -15 -23 -15 -11 0
-22 -4 -25 -10 -8 -12 -25 -13 -25 -1 0 11 62 50 72 44 4 -2 5 -10 1 -18z
m-3810 -25 c32 -25 51 -80 42 -121 -4 -17 -20 -46 -37 -65 -25 -28 -37 -34
-70 -34 -67 0 -106 59 -95 143 11 82 100 124 160 77z m3697 6 c0 -8 3 -21 6
-29 3 -10 -6 -20 -27 -31 -18 -9 -36 -16 -40 -16 -17 0 -2 49 21 69 30 24 40
26 40 7z m450 -12 c0 -23 -3 -25 -32 -22 -23 2 -34 9 -36 22 -3 11 0 16 7 12
6 -4 19 -2 28 3 27 16 33 13 33 -15z m120 -6 c-1 -15 -16 -34 -46 -56 -25 -19
-48 -31 -51 -29 -14 15 17 64 53 84 48 28 44 28 44 1z m-452 0 c-2 -6 -21 -17
-41 -24 -30 -11 -37 -11 -37 0 0 7 15 18 33 24 44 14 49 14 45 0z m2 -35 c0
-8 -65 -63 -74 -63 -4 0 -6 8 -6 18 0 11 13 25 33 34 38 18 47 20 47 11z
m-230 -13 c0 -5 -12 -16 -27 -25 l-28 -16 33 6 c29 6 32 4 32 -18 0 -14 -7
-28 -16 -31 -24 -9 -54 -7 -54 4 0 6 8 10 18 10 9 0 24 5 32 11 12 8 9 10 -13
6 -38 -6 -48 20 -18 45 26 20 41 23 41 8z m117 -35 c0 -28 -6 -39 -33 -60 -40
-30 -44 -31 -44 -5 0 13 11 25 33 34 l32 14 -32 1 c-41 1 -43 17 -3 26 17 4
30 11 30 16 0 5 4 9 8 9 4 0 8 -16 9 -35z m-2173 -27 c6 -29 0 -38 -79 -117
-90 -92 -144 -158 -145 -178 0 -18 -11 -16 -39 6 l-24 18 34 49 c33 49 227
254 240 254 4 0 9 -14 13 -32z m2291 -25 c-3 -16 -16 -36 -28 -46 l-22 -18 28
7 c15 3 27 4 27 1 0 -5 -77 -57 -85 -57 -3 0 -5 17 -5 38 0 30 7 43 37 69 47
40 57 41 48 6z m-225 -34 c0 -15 -48 -59 -64 -59 -3 0 -6 12 -6 26 0 14 4 23
9 20 4 -3 17 2 27 10 18 15 18 15 -8 9 -17 -3 -28 -1 -28 5 0 6 16 10 35 8 26
-1 35 -7 35 -19z m110 -58 c0 -34 -5 -42 -34 -60 -42 -27 -46 -26 -46 3 0 17
7 27 23 32 21 7 21 7 2 14 -19 7 -18 8 8 20 15 7 27 17 27 22 0 4 5 8 10 8 6
0 10 -18 10 -39z m-2171 -161 c2 -119 -1 -180 -8 -180 -5 0 -13 5 -16 10 -9
15 -45 12 -45 -3 0 -18 21 -37 41 -37 11 0 19 -11 23 -31 8 -43 7 -121 -2
-135 -4 -6 -43 -33 -87 -59 -44 -27 -119 -75 -167 -107 l-88 -59 0 40 c0 121
38 284 98 414 l35 78 26 -24 c31 -29 73 -57 83 -57 5 0 8 7 8 16 0 10 -6 14
-14 11 -8 -3 -24 7 -37 24 -12 16 -28 29 -35 29 -20 0 -17 15 11 60 28 45 153
190 163 190 4 0 9 -81 11 -180z m779 118 c-7 -5 -25 -15 -40 -24 l-28 -15 0
51 0 50 40 -26 c30 -20 37 -30 28 -36z m3072 5 l0 -58 -49 -27 c-61 -35 -69
-35 -110 0 l-34 28 89 57 c49 31 92 57 97 57 4 0 7 -26 7 -57z m-1560 22 c0
-18 -10 -32 -32 -46 l-33 -20 33 6 c17 4 32 4 32 1 0 -6 -76 -56 -85 -56 -3 0
-5 18 -5 40 0 35 5 43 42 70 22 16 43 30 45 30 1 0 3 -11 3 -25z m-263 -103
l-34 -34 -5 33 c-5 29 0 39 31 69 l36 35 3 -34 c3 -28 -3 -40 -31 -69z m-1633
30 l29 -15 -6 -156 c-4 -86 -7 -196 -7 -244 l0 -89 -29 24 c-15 14 -42 30 -60
37 l-31 13 0 245 0 245 38 -23 c20 -12 50 -29 66 -37z m521 -13 c36 -22 65
-45 65 -50 0 -5 -22 -25 -50 -45 -27 -20 -50 -39 -50 -44 0 -9 106 -80 200
-135 59 -34 246 -151 441 -276 41 -27 79 -49 83 -49 4 0 22 11 40 25 38 29 47
30 84 10 57 -31 58 -32 31 -54 -13 -12 -60 -44 -103 -71 l-80 -50 -30 19 c-17
10 -114 69 -216 131 -102 62 -264 161 -360 220 -96 58 -205 125 -241 148 -36
23 -69 42 -73 42 -9 0 -3 -756 6 -765 4 -4 28 4 54 19 25 14 50 26 54 26 4 0
67 -37 139 -82 145 -91 138 -87 231 -141 80 -47 116 -69 354 -220 104 -66 194
-120 200 -121 15 -1 75 33 354 203 234 142 236 143 261 127 15 -10 41 -24 59
-32 43 -19 39 -24 -90 -104 -110 -68 -203 -127 -441 -277 -82 -51 -154 -90
-160 -87 -63 36 -845 524 -1009 631 l-98 63 0 392 c0 216 3 402 6 414 3 13 36
38 87 67 45 26 102 60 127 76 25 16 48 30 53 30 4 1 37 -17 72 -40z m1263 21
c-2 -12 -22 -32 -46 -46 l-44 -26 4 23 c3 21 58 69 80 69 5 0 8 -9 6 -20z
m-2618 6 c0 -3 -4 -8 -10 -11 -5 -3 -10 -1 -10 4 0 6 5 11 10 11 6 0 10 -2 10
-4z m2502 -117 c-5 -22 -19 -40 -42 -53 l-33 -20 5 27 c3 15 1 27 -3 27 -19 0
-7 22 34 61 42 41 42 42 45 16 2 -13 -1 -40 -6 -58z m118 56 c0 -13 -65 -65
-82 -65 -5 0 -8 9 -8 19 0 12 14 27 38 39 47 25 52 25 52 7z m1494 -13 l44
-28 -77 -49 c-120 -77 -334 -205 -343 -205 -4 0 -8 26 -8 58 l1 57 85 54 c101
64 236 141 246 141 4 0 27 -13 52 -28z m-3165 -10 c22 -13 27 -22 20 -32 -5
-8 -9 -48 -9 -87 0 -76 -6 -85 -33 -55 -11 12 -16 43 -19 105 -2 48 0 87 4 87
4 0 21 -8 37 -18z m3351 -27 c0 -28 -36 -54 -320 -225 -85 -51 -174 -106 -197
-122 -23 -15 -44 -28 -47 -28 -3 0 -6 13 -6 30 0 33 -13 23 240 178 259 159
315 192 323 192 4 0 7 -11 7 -25z m-4137 -17 c15 -12 14 -19 -17 -83 -63 -134
-96 -269 -96 -400 0 -74 -3 -87 -22 -105 -12 -11 -26 -20 -31 -20 -16 0 0 232
23 340 19 91 98 280 118 280 4 0 16 -6 25 -12z m1267 -38 c0 -11 -4 -20 -10
-20 -5 0 -10 9 -10 20 0 11 5 20 10 20 6 0 10 -9 10 -20z m-1949 -5 c72 -38
59 -161 -23 -209 -25 -15 -34 -16 -60 -5 -89 37 -52 207 50 228 2 1 16 -6 33
-14z m4819 -65 c0 -21 -34 -50 -122 -103 -35 -21 -148 -89 -253 -151 -187
-112 -190 -113 -193 -88 -3 19 3 31 18 42 73 50 536 326 543 323 4 -2 7 -13 7
-23z m-1497 -3 c27 -21 28 -25 25 -104 l-3 -83 -62 40 c-61 38 -63 41 -63 82
0 37 5 46 33 65 40 27 37 27 70 0z m-943 -87 l0 -70 115 -67 116 -68 -26 -22
-26 -22 -52 34 c-28 19 -95 61 -147 94 -108 67 -150 100 -135 107 6 2 39 22
75 44 36 22 68 40 73 40 4 0 7 -31 7 -70z m3748 47 c38 -41 46 -81 25 -124
-16 -34 -23 -38 -59 -41 -36 -3 -45 1 -73 33 -37 43 -41 89 -10 129 27 35 86
36 117 3z m-2635 -64 l68 -44 -3 -79 c-2 -44 -4 -80 -4 -80 -8 0 -141 85 -146
94 -4 6 -8 46 -8 89 0 60 3 76 13 71 6 -4 43 -27 80 -51z m-2038 31 c24 -16
25 -19 25 -145 l0 -130 -30 23 -31 22 2 123 c0 68 3 123 5 123 3 0 16 -7 29
-16z m3355 -107 l0 -43 -122 -74 c-164 -101 -158 -99 -158 -47 l0 42 138 82
c75 45 138 82 140 82 1 1 2 -18 2 -42z m-1481 -48 c22 -14 23 -20 26 -151 l3
-137 -64 -41 c-35 -22 -66 -40 -69 -40 -3 0 -5 99 -5 220 l0 219 43 -27 c23
-16 53 -35 66 -43z m340 19 c31 -17 75 -44 99 -60 l42 -29 0 -85 0 -85 -27 16
c-71 40 -166 103 -174 116 -10 16 -12 159 -3 159 4 0 32 -14 63 -32z m-2242
-153 l48 -30 3 -62 3 -63 -93 61 c-180 118 -248 164 -248 171 0 4 18 18 40 31
l41 24 79 -51 c43 -28 100 -64 127 -81z m2133 -14 c0 -16 -28 -40 -86 -75 -34
-20 -64 -36 -68 -36 -3 0 -6 49 -6 110 l0 110 80 -51 c44 -28 80 -54 80 -58z
m-2608 43 c4 -34 2 -37 -51 -68 -83 -49 -252 -154 -370 -230 -58 -36 -108 -66
-113 -66 -4 0 -8 7 -8 15 0 36 33 75 92 111 35 21 146 91 247 156 101 65 187
118 191 118 4 0 10 -16 12 -36z m212 -33 c50 -32 102 -64 116 -71 14 -7 64
-38 112 -69 l88 -56 0 -58 0 -57 -67 42 c-137 85 -369 234 -393 250 l-24 18
29 30 c16 16 33 30 38 30 6 0 51 -26 101 -59z m3326 -5 c0 -21 -8 -40 -22 -53
-20 -17 -137 -92 -390 -247 -37 -22 -116 -73 -175 -111 -60 -39 -128 -82 -153
-96 l-45 -26 -125 76 c-138 83 -310 192 -310 196 0 9 110 73 115 66 3 -5 56
-39 118 -77 61 -37 135 -82 164 -101 40 -27 56 -32 70 -24 10 5 90 52 178 104
88 51 243 142 345 202 102 60 191 114 199 121 20 18 31 8 31 -30z m-2476 -59
c18 -13 16 -16 -42 -56 -33 -22 -63 -41 -66 -41 -4 0 -6 36 -6 80 l0 80 48
-24 c26 -13 56 -31 66 -39z m929 -79 l27 -19 0 -155 c0 -85 -2 -154 -5 -154
-8 0 -139 81 -157 98 -16 13 -18 35 -18 168 l0 153 63 -36 c34 -20 74 -45 90
-55z m760 50 c38 -24 78 -47 88 -53 16 -8 19 -21 19 -90 l0 -81 -46 -23 -47
-22 -56 35 -56 34 -3 108 c-3 114 0 134 20 134 6 0 43 -19 81 -42z m-2749 -26
c-6 -9 -62 -47 -125 -84 -140 -83 -308 -191 -308 -198 -1 -8 251 -168 694
-442 72 -45 201 -125 287 -179 86 -55 160 -99 163 -99 15 0 2 35 -20 52 -36
28 -198 134 -242 158 -21 11 -83 49 -138 85 -55 35 -125 78 -155 96 -30 18
-99 61 -153 96 -54 35 -116 74 -139 87 -42 23 -60 46 -38 46 6 0 42 18 78 39
97 57 97 57 93 -15 l-3 -61 60 -39 c33 -22 84 -54 113 -72 211 -128 264 -164
264 -180 0 -13 9 -17 35 -17 20 0 52 -11 74 -24 l38 -24 -28 -13 -29 -12 26
-1 c14 -1 29 3 35 8 10 10 204 -93 204 -109 0 -4 20 -16 45 -26 l46 -17 -43
-28 c-24 -16 -48 -29 -55 -29 -21 0 -25 -21 -7 -35 30 -23 61 -18 68 8 7 27
76 63 102 53 15 -6 15 -8 -2 -27 -10 -12 -32 -28 -49 -36 -16 -9 -48 -31 -71
-49 -23 -19 -46 -34 -51 -34 -6 0 -28 13 -49 28 -21 15 -226 144 -454 287
-228 142 -451 281 -495 308 -44 27 -136 86 -204 130 l-124 81 24 19 c13 10 98
64 189 120 91 55 203 124 250 154 82 51 85 52 94 32 6 -13 6 -26 0 -37z m2606
-57 c0 -67 -3 -84 -12 -78 -7 5 -37 24 -65 42 -29 19 -53 37 -53 40 1 7 111
79 123 80 4 1 7 -37 7 -84z m-1405 29 c17 -13 114 -72 215 -132 l185 -108 3
-192 2 -193 -22 12 c-13 6 -104 62 -203 124 -99 62 -236 146 -305 187 -152 90
-240 148 -240 158 0 10 128 100 142 100 13 0 60 -55 70 -82 5 -16 14 -26 18
-23 18 11 213 -93 283 -151 16 -13 33 -24 39 -24 15 0 4 24 -18 35 -10 6 -65
39 -122 74 -73 45 -100 67 -93 74 20 20 11 35 -29 51 -43 17 -52 35 -20 43 23
6 27 23 5 23 -8 0 -15 -4 -15 -9 0 -13 -58 -34 -76 -27 -26 10 -11 29 52 67
64 40 68 39 129 -7z m3193 -341 c72 -47 132 -87 132 -88 0 -4 -210 -135 -577
-358 -98 -60 -189 -117 -203 -126 -14 -10 -44 -28 -67 -40 l-41 -24 -74 45
c-392 241 -390 240 -407 225 -9 -7 -113 -74 -231 -147 -118 -73 -235 -146
-260 -161 l-45 -29 -6 23 c-8 28 8 45 88 94 34 21 143 89 243 151 99 62 197
122 216 133 l36 20 62 -39 c33 -22 102 -63 151 -92 153 -90 179 -106 206 -123
25 -17 26 -16 190 86 90 57 222 138 294 182 71 43 158 97 193 121 36 24 70 45
76 47 17 7 -14 34 -98 86 -291 178 -506 314 -506 320 0 3 14 16 31 27 l30 21
217 -135 c119 -74 277 -173 350 -219z m-4392 291 c-3 -9 -6 -29 -6 -45 0 -17
-4 -28 -9 -24 -5 3 -12 1 -16 -5 -3 -5 0 -10 8 -10 16 0 27 -21 27 -49 0 -9
-15 -28 -32 -42 -43 -32 -181 -119 -188 -119 -3 1 -21 9 -40 20 -25 14 -30 19
-16 20 23 0 56 28 56 47 0 19 -9 16 -47 -13 -33 -25 -34 -25 -63 -7 -17 9 -30
20 -30 23 0 4 75 51 166 105 91 55 168 103 170 107 9 15 26 8 20 -8z m3941
-156 c125 -77 254 -156 285 -175 31 -18 60 -38 63 -43 3 -5 -6 -17 -20 -26
-23 -15 -28 -15 -43 -2 -15 13 -157 101 -465 288 -49 30 -91 58 -94 63 -5 8
24 36 39 37 3 0 109 -64 235 -142z m-2157 -190 l-1 -243 -41 -26 -42 -27 -28
21 c-21 15 -28 27 -24 42 3 11 6 106 6 210 l0 190 58 37 c31 20 60 37 65 37 4
1 7 -108 7 -241z m1960 189 c111 -70 244 -153 345 -215 50 -30 94 -58 98 -62
4 -4 -27 -30 -70 -57 -127 -83 -451 -283 -468 -289 -16 -7 -175 91 -175 108 0
5 7 11 15 14 8 4 15 11 15 17 0 5 -9 2 -20 -8 -19 -17 -22 -17 -65 -1 -25 10
-47 22 -51 27 -3 5 -28 21 -56 35 -28 14 -47 29 -42 34 5 4 29 21 53 39 l44
31 47 -35 c42 -31 60 -35 60 -14 0 4 -10 10 -22 13 -13 3 -34 14 -47 24 l-23
19 128 78 c71 44 143 86 159 94 28 15 28 16 8 19 -19 3 -22 10 -25 75 -4 75 0
110 11 105 3 -2 40 -24 81 -51z m-4332 19 c3 -3 -7 -15 -21 -27 l-27 -20 0
-219 0 -219 -62 -37 c-35 -21 -109 -69 -165 -106 -56 -37 -105 -68 -110 -68
-4 0 -7 110 -5 245 l3 245 29 0 c25 0 30 4 30 25 0 17 12 33 46 55 25 18 47
30 49 28 9 -9 8 -278 -1 -290 -23 -29 -23 -48 0 -75 27 -31 50 -27 68 12 8 18
8 31 0 48 -16 33 -24 325 -9 337 80 67 103 80 136 75 18 -2 36 -7 39 -9z
m2930 -15 c24 -16 162 -97 274 -159 104 -59 118 -72 118 -115 0 -39 0 -39 -22
-23 -38 26 -218 140 -313 197 -81 49 -90 58 -93 87 -4 37 0 39 36 13z m1211
-32 c38 -28 42 -35 39 -68 -3 -31 -10 -41 -58 -73 -30 -21 -57 -38 -60 -38 -4
0 -5 179 -1 203 3 16 39 5 80 -24z m-1421 -37 c67 -43 112 -78 112 -85 0 -3
-35 -27 -77 -53 -43 -26 -136 -83 -206 -127 -71 -43 -129 -77 -130 -75 -1 1
-1 78 1 170 l3 167 106 -64 c58 -36 109 -65 114 -65 5 0 9 38 9 85 0 47 2 85
5 85 2 0 31 -17 63 -38z m1289 -34 l-4 -23 -10 24 -10 24 -24 -24 -24 -24 33
-3 c38 -4 45 -32 8 -32 -14 0 -28 -5 -32 -11 -4 -7 5 -10 27 -7 31 3 34 1 37
-27 3 -26 -3 -35 -38 -57 l-40 -27 0 98 0 98 38 27 c35 25 37 26 40 6 2 -11 2
-30 -1 -42z m-3066 3 l64 -38 3 -132 c1 -72 0 -131 -2 -131 -3 0 -35 21 -71
46 l-65 46 0 124 c0 68 2 124 4 124 2 0 33 -17 67 -39z m322 -32 c56 -34 163
-101 237 -149 188 -121 267 -170 485 -305 105 -65 211 -132 238 -149 l47 -31
0 -62 c0 -35 -4 -63 -9 -63 -9 0 -251 149 -666 409 -93 59 -228 143 -298 186
-80 50 -132 89 -138 103 -10 25 -13 122 -4 122 3 0 52 -28 108 -61z m-1063
-89 c58 -36 170 -106 250 -155 80 -49 156 -97 170 -107 14 -11 72 -47 130 -82
211 -127 563 -351 566 -361 2 -5 -13 -22 -33 -36 l-36 -25 -286 179 c-157 98
-317 199 -356 224 -38 24 -151 94 -250 155 -271 167 -339 210 -347 222 -4 6
-8 33 -8 59 l0 48 48 -28 c26 -15 94 -57 152 -93z m3669 68 c12 -165 12 -162
-22 -185 -60 -41 -67 -40 -68 6 -1 23 -2 49 -2 59 -1 9 2 33 7 52 l7 35 15
-27 c10 -19 23 -28 39 -28 14 0 25 4 25 9 0 19 -21 66 -33 73 -8 5 -6 8 6 8 9
0 17 5 17 10 0 20 8 9 9 -12z m-2779 -127 c5 -97 5 -96 65 -128 17 -8 61 -36
99 -61 l68 -45 -33 -18 c-48 -25 -69 -25 -61 3 4 16 2 20 -10 16 -8 -3 -46 13
-84 36 l-69 41 -3 129 c-2 100 0 127 10 124 9 -3 15 -34 18 -97z m2633 34 c-4
-19 -41 -47 -174 -130 -93 -58 -171 -105 -175 -105 -3 0 -4 14 -2 31 3 29 16
39 173 134 94 57 173 101 176 99 4 -2 4 -15 2 -29z m-3685 -53 c9 -7 12 -71
10 -286 l-3 -277 -22 21 c-23 21 -23 24 -23 285 0 272 1 280 38 257z m3229
-48 l53 -36 0 -134 c0 -74 -4 -134 -9 -134 -4 0 -29 -16 -54 -35 -25 -19 -48
-35 -52 -35 -3 0 -5 92 -5 205 1 113 4 205 8 205 4 0 30 -16 59 -36z m446 -50
c-10 -8 -67 -44 -128 -80 -60 -37 -131 -82 -158 -100 -26 -19 -49 -34 -52 -34
-3 0 -5 15 -5 34 0 33 4 37 128 114 70 43 150 92 177 109 l50 30 3 -29 c2 -20
-3 -35 -15 -44z m-3550 8 c23 -16 130 -82 237 -147 107 -66 198 -124 202 -130
4 -5 8 -20 8 -32 0 -19 -9 -16 -97 37 -280 169 -408 255 -411 278 -4 29 11 28
61 -6z m2984 -379 c-5 -4 -203 112 -230 136 -38 32 -18 57 108 134 l120 74 3
-170 c1 -93 1 -172 -1 -174z m-2877 196 c36 -21 89 -53 118 -71 l54 -31 -29
-23 c-15 -13 -31 -23 -34 -24 -3 0 -34 18 -70 40 -35 22 -94 56 -131 76 -57
32 -67 42 -70 68 -7 63 -2 67 50 34 26 -16 76 -47 112 -69z m1124 9 c19 -13
59 -39 90 -57 61 -38 68 -52 32 -69 -25 -11 -58 3 -103 47 -12 11 -26 21 -32
21 -8 0 -61 25 -81 38 -5 4 41 41 52 42 4 0 23 -10 42 -22z m3692 -82 c-37
-23 -128 -79 -204 -125 -173 -106 -551 -344 -616 -387 l-49 -33 -31 24 c-17
13 -91 59 -163 103 -73 44 -144 89 -157 99 -14 10 -57 38 -95 62 -39 25 -71
47 -71 50 0 3 16 16 34 28 33 21 35 22 58 4 13 -10 119 -75 236 -144 l212
-126 93 58 c50 32 216 135 367 229 151 93 300 185 330 204 l55 34 33 -19 34
-20 -66 -41z m-2236 -56 l0 -90 -57 37 c-92 57 -91 51 -21 99 35 23 66 42 71
43 4 1 7 -39 7 -89z m103 -8 c23 -16 77 -48 120 -72 71 -41 77 -46 77 -76 0
-28 -7 -37 -57 -70 -32 -21 -83 -54 -113 -74 -30 -19 -61 -39 -67 -43 -10 -6
-13 13 -13 83 l0 91 35 -27 c19 -14 42 -24 50 -20 29 11 16 33 -42 70 l-43 26
0 70 c0 39 3 70 6 70 3 0 24 -13 47 -28z m-1346 1 c6 -18 -37 -37 -50 -24 -8
8 -5 15 9 26 21 16 36 15 41 -2z m-1025 -55 c17 -13 30 -71 21 -95 -4 -10 -95
43 -183 105 -2 1 9 13 25 26 l30 24 45 -23 c25 -13 53 -29 62 -37z m164 11
c41 -27 157 -102 257 -165 131 -82 184 -121 188 -138 9 -32 -4 -52 -20 -32 -7
9 -54 41 -105 73 -233 146 -402 256 -413 270 -12 16 -7 43 9 43 5 0 43 -23 84
-51z m1122 -109 c82 -54 82 -54 57 -67 -23 -13 -29 -11 -69 17 -25 16 -49 30
-55 30 -5 0 -23 12 -38 26 -15 14 -50 37 -78 51 -65 33 -64 31 -35 53 24 18
24 18 79 -19 31 -20 93 -61 139 -91z m892 73 l90 -58 0 -57 c0 -32 -3 -58 -8
-58 -4 0 -57 29 -117 63 -105 61 -110 66 -113 100 -2 27 2 39 20 51 12 9 26
16 31 16 4 0 48 -26 97 -57z m-1109 -43 c32 -22 72 -43 89 -46 20 -4 29 -11
26 -20 -7 -17 11 -29 63 -45 l43 -13 -43 -38 c-46 -39 -69 -47 -69 -25 0 15
-69 57 -94 57 -33 0 -14 -29 34 -53 l50 -25 -35 -26 -34 -26 -141 87 -140 86
22 24 c28 30 37 29 85 -6 79 -57 133 -76 133 -46 0 8 -32 33 -71 55 -39 23
-68 44 -65 47 8 8 80 52 86 53 2 0 30 -18 61 -40z m919 13 c0 -23 -11 -35 -65
-70 l-65 -41 0 33 c0 30 6 37 57 69 32 20 61 36 65 36 4 0 8 -12 8 -27z
m-1804 -64 c54 -34 168 -106 252 -160 85 -54 158 -99 163 -101 6 -2 9 -25 7
-50 l-3 -47 -151 97 c-83 53 -203 130 -267 171 -116 73 -117 74 -117 112 0 22
4 39 8 39 5 0 53 -28 108 -61z m3089 -128 c22 -12 90 -53 150 -92 61 -39 134
-84 163 -101 l52 -30 0 -60 c0 -33 -4 -58 -8 -56 -5 2 -86 53 -181 113 -95 61
-218 139 -274 174 -56 35 -121 76 -144 90 l-43 27 41 31 41 31 81 -53 c45 -29
100 -62 122 -74z m-1480 99 c3 -5 1 -10 -4 -10 -6 0 -11 5 -11 10 0 6 2 10 4
10 3 0 8 -4 11 -10z m-355 -45 c7 -9 11 -17 9 -18 -36 -24 -60 -29 -74 -17
-14 12 -14 15 1 31 21 23 47 24 64 4z m1130 -37 l0 -43 -116 -70 c-64 -38
-121 -71 -125 -73 -17 -7 -9 65 9 80 14 14 222 147 230 148 1 0 2 -19 2 -42z
m-385 16 c13 -11 16 -18 8 -21 -16 -6 -405 -254 -520 -331 -51 -34 -94 -62
-97 -62 -9 0 -431 271 -434 279 -1 4 14 16 35 27 21 10 64 36 95 57 62 40 79
44 97 23 9 -10 4 -19 -21 -38 -18 -14 -49 -33 -67 -43 l-35 -18 23 -18 c30
-24 48 -24 56 0 3 11 43 43 88 72 79 50 82 51 107 36 14 -9 43 -26 65 -38 101
-55 180 -119 147 -119 -5 0 -38 -20 -75 -45 -37 -24 -78 -47 -92 -51 -48 -12
-36 -27 42 -49 22 -6 41 9 23 20 -23 14 58 70 88 61 11 -4 21 2 27 16 10 22
378 255 405 257 8 0 24 -7 35 -15z m755 -59 l0 -65 -44 33 c-25 17 -45 34 -45
37 0 6 71 58 82 59 4 1 7 -28 7 -64z m-670 -8 c0 -33 -5 -37 -127 -113 -121
-74 -305 -191 -401 -255 -48 -32 -83 -37 -102 -14 -7 9 -11 17 -9 19 4 3 76
49 219 139 129 82 414 257 417 257 2 0 3 -15 3 -33z m758 15 c15 -11 108 -68
207 -127 99 -59 200 -122 225 -139 25 -18 75 -49 113 -71 l67 -39 0 -63 c0
-35 -2 -63 -6 -63 -8 0 -216 132 -397 251 -86 57 -177 116 -202 131 -45 27
-45 28 -45 83 0 30 3 55 6 55 3 0 18 -8 32 -18z m1653 -54 l98 -63 0 -73 1
-74 -29 19 c-15 10 -63 41 -104 68 l-77 50 0 68 c0 37 3 67 7 67 3 0 50 -28
104 -62z m-5711 -11 l0 -64 -82 -53 c-46 -30 -89 -58 -95 -63 -10 -7 -13 6
-13 61 l0 70 80 47 c44 26 83 51 86 56 15 24 24 3 24 -54z m3892 -12 c40 -25
76 -53 80 -63 13 -33 9 -109 -7 -122 -35 -29 -5 -100 41 -100 40 0 61 73 29
100 -15 12 -17 100 -2 100 15 0 196 -125 194 -134 -2 -5 -41 -33 -88 -62 -46
-29 -93 -61 -104 -70 -11 -10 -24 -19 -30 -19 -5 0 -41 -21 -80 -46 -38 -26
-164 -106 -280 -179 -115 -72 -229 -145 -252 -161 -25 -16 -50 -26 -58 -22
-11 3 -18 -1 -21 -13 -3 -11 -62 -54 -142 -102 -75 -45 -197 -120 -269 -167
l-133 -85 0 269 0 268 57 38 c93 62 155 96 161 90 4 -3 8 -37 10 -76 4 -60 7
-69 23 -69 17 0 19 9 19 93 l0 94 127 79 c70 43 130 80 135 82 4 2 9 -101 10
-230 l3 -233 23 -3 22 -3 0 253 1 253 118 73 c65 39 121 72 125 72 3 0 6 -45
6 -101 0 -98 0 -100 23 -97 21 3 22 8 27 122 l5 119 75 48 c41 26 76 48 77 48
2 1 35 -19 75 -44z m-2142 -267 l0 -258 -25 12 -25 11 0 270 0 270 25 -23 25
-23 0 -259z m260 248 c0 -2 -7 -7 -16 -10 -8 -3 -12 -2 -9 4 6 10 25 14 25 6z
m-83 -100 c123 -74 136 -85 131 -116 -3 -20 -10 -17 -93 36 -49 31 -107 68
-127 81 -28 17 -38 30 -38 49 0 14 3 23 8 21 4 -2 57 -34 119 -71z m-2157 -20
l0 -64 -137 -90 c-76 -49 -139 -89 -140 -88 0 0 -3 29 -6 63 l-5 63 113 70
c62 38 123 79 136 90 13 10 27 19 32 20 4 0 7 -29 7 -64z m6243 -33 l127 -84
0 -69 0 -70 -117 77 c-65 42 -131 83 -146 92 -23 13 -27 21 -23 45 4 16 6 46
6 68 0 29 3 37 13 32 6 -5 69 -46 140 -91z m-3528 -88 c121 -75 223 -142 227
-149 11 -16 10 -126 -1 -126 -6 0 -12 4 -15 9 -3 5 -45 34 -93 64 -49 30 -164
102 -256 161 -93 58 -173 106 -178 106 -19 0 -8 20 29 50 20 17 44 29 52 27 8
-2 114 -66 235 -142z m-2489 -71 c-4 -12 -169 -124 -181 -124 -3 0 -5 47 -5
104 l0 104 93 61 92 61 3 -97 c1 -53 1 -102 -2 -109z m5754 106 c0 -7 -152
-111 -156 -107 -1 1 1 48 4 104 l5 101 73 -45 c41 -25 74 -49 74 -53z m-3727
-74 c33 -23 37 -31 37 -67 l0 -41 -37 23 c-21 12 -45 28 -53 34 -8 6 -50 33
-92 59 l-78 47 0 44 0 44 93 -59 c50 -32 109 -70 130 -84z m235 -27 c54 -33
134 -83 178 -112 45 -28 103 -64 128 -79 39 -23 46 -32 46 -58 l0 -30 -80 50
c-232 146 -417 267 -425 280 -4 6 -4 18 -1 27 6 14 9 13 32 -2 14 -9 69 -43
122 -76z m3552 -30 c0 -60 -2 -109 -5 -109 -3 0 -35 20 -72 43 -38 24 -75 46
-83 49 -9 3 13 22 59 52 40 26 75 56 78 66 12 47 23 0 23 -101z m-6041 -13 c2
-71 -1 -87 -13 -92 -11 -4 -14 -14 -10 -28 4 -18 -6 -29 -63 -68 -80 -53 -144
-90 -149 -85 -2 2 -7 21 -12 43 -4 21 -12 38 -17 36 -13 -5 -23 26 -24 71 -1
34 3 40 45 65 26 15 87 54 138 87 50 34 93 60 96 59 3 -2 7 -41 9 -88z m6193
18 c57 -37 120 -77 141 -91 33 -20 37 -28 37 -63 0 -29 -4 -40 -15 -40 -31 0
-48 -93 -19 -104 26 -10 69 -7 82 6 15 15 16 74 2 83 -10 6 -14 65 -5 65 20 0
55 -36 55 -57 0 -13 18 -69 41 -124 23 -55 39 -103 36 -105 -7 -8 -60 20 -152
81 -44 28 -119 75 -167 104 -54 32 -89 60 -93 74 -4 12 -17 30 -29 39 -19 15
-21 27 -21 107 0 50 1 91 2 91 1 0 49 -30 105 -66z m-6522 0 c0 -61 6 -52 -89
-132 l-34 -29 -54 31 c-29 16 -53 33 -53 37 0 4 45 35 101 70 55 34 102 66
105 71 14 22 24 2 24 -48z m6846 -3 c50 -32 100 -64 113 -70 22 -12 22 -13
-26 -47 -26 -19 -51 -34 -55 -34 -11 0 -122 72 -130 84 -10 15 -10 126 0 126
5 0 49 -26 98 -59z m-3991 -110 c66 -42 164 -103 218 -135 l97 -59 0 -48 0
-49 -37 24 c-21 13 -104 66 -184 117 -81 52 -179 114 -218 138 -77 49 -83 57
-74 101 l6 30 36 -22 c20 -12 90 -56 156 -97z m3229 101 c15 -18 9 -24 -151
-129 -93 -61 -195 -128 -229 -149 -219 -140 -546 -354 -828 -543 -347 -231
-351 -234 -354 -258 -4 -29 17 -30 49 -3 13 12 119 82 234 157 116 75 410 267
655 426 245 160 488 317 540 350 52 33 107 71 121 84 l27 25 68 -43 c38 -23
88 -53 110 -67 l42 -26 -87 -56 c-110 -73 -262 -172 -701 -458 -523 -340 -942
-618 -964 -638 -19 -17 -19 -18 4 -36 33 -26 59 -23 71 10 10 27 48 52 756
515 706 460 854 557 907 593 l60 40 53 -35 c29 -20 52 -38 52 -41 1 -3 -45
-35 -102 -72 -584 -380 -803 -524 -1390 -912 -348 -231 -391 -256 -405 -243
-10 8 -102 72 -207 142 -227 153 -234 158 -235 166 0 8 99 74 445 294 154 98
363 232 465 298 332 215 633 409 760 490 69 43 143 92 165 108 48 34 48 34 69
11z m-6084 -160 c0 -16 -7 -37 -15 -48 -8 -10 -15 -27 -15 -36 0 -22 46 -58
70 -53 11 2 20 1 20 -3 -1 -14 -185 -126 -198 -120 -5 1 8 48 29 103 21 55 38
110 39 122 0 19 43 62 63 63 4 0 7 -13 7 -28z m3252 -55 c14 -11 16 -45 19
-277 2 -146 1 -265 -1 -264 -3 1 -15 4 -27 8 l-23 7 0 270 c0 148 3 269 8 269
4 0 14 -6 24 -13z m-2643 -113 c12 -15 21 -33 21 -41 0 -26 -32 -63 -55 -63
-25 0 -55 38 -55 70 0 23 33 60 54 60 8 0 24 -12 35 -26z m3531 -1010 c-32
-24 -62 -44 -66 -44 -5 0 -29 13 -53 29 l-43 29 67 45 67 45 43 -30 43 -31
-58 -43z m1685 60 c8 -4 22 -19 30 -34 12 -24 12 -31 -3 -61 -14 -28 -23 -35
-54 -37 -28 -2 -40 2 -52 20 -44 62 9 138 79 112z m-1482 -114 c53 -36 97 -67
97 -70 -1 -13 -113 -81 -125 -76 -8 3 -56 33 -106 66 l-91 62 44 27 c24 15 49
35 57 45 17 20 5 25 124 -54z m193 -132 l44 -31 -61 -43 -61 -42 -44 31 c-24
17 -44 33 -44 37 0 3 16 14 35 24 19 10 42 27 51 37 23 25 28 24 80 -13z m241
-162 l142 -94 -24 -22 c-13 -12 -29 -36 -36 -53 -7 -18 -13 -33 -14 -35 -4 -6
-320 209 -320 218 0 9 92 78 106 79 3 1 69 -41 146 -93z m-2389 -179 c400
-265 676 -447 685 -450 5 -1 3 -33 -3 -69 l-12 -67 -41 26 c-23 15 -114 74
-202 133 -185 124 -381 252 -618 404 -92 60 -166 111 -163 114 7 6 100 71 104
71 2 1 114 -73 250 -162z m2147 108 c16 -13 27 -26 25 -28 -5 -4 -236 -156
-505 -332 -66 -43 -192 -127 -280 -185 l-161 -107 -18 60 c-9 33 -13 63 -9 67
4 4 100 67 212 141 113 74 306 202 430 285 251 167 229 160 306 99z m468 -82
c27 -30 29 -65 7 -100 -36 -60 -110 -37 -110 33 0 24 8 43 25 59 28 29 56 32
78 8z m-3255 -69 c29 -20 30 -72 2 -102 -27 -28 -45 -28 -75 3 -31 30 -32 62
-3 92 25 27 45 29 76 7z m1645 -308 c66 -24 106 -58 134 -114 50 -102 15 -220
-81 -277 -96 -56 -232 -25 -288 66 -70 113 -35 251 81 311 59 31 96 34 154 14z"/>
<path d="M6917 7952 c-25 -28 -21 -67 9 -91 34 -27 50 -26 69 3 19 28 8 66
-27 90 -28 20 -31 20 -51 -2z"/>
<path d="M6908 7765 c-15 -34 -1 -76 32 -92 53 -26 83 52 37 95 -31 29 -55 28
-69 -3z"/>
<path d="M7915 7189 c-5 -7 -1 -18 11 -26 24 -17 33 2 11 24 -11 12 -16 12
-22 2z"/>
<path d="M7990 7137 c0 -15 54 -49 64 -40 7 7 -41 53 -56 53 -4 0 -8 -6 -8
-13z"/>
<path d="M8160 6940 c-13 -8 -12 -11 5 -24 25 -18 46 -3 25 19 -10 10 -20 11
-30 5z"/>
<path d="M7684 6629 c-3 -6 -2 -15 4 -21 15 -15 46 -5 50 15 3 12 -3 17 -22
17 -14 0 -28 -5 -32 -11z"/>
<path d="M2613 7938 c-31 -39 -24 -88 13 -88 28 0 46 30 42 68 -3 30 -37 42
-55 20z"/>
<path d="M5110 7690 c-9 -6 -10 -10 -3 -10 6 0 15 5 18 10 8 12 4 12 -15 0z"/>
<path d="M5032 7647 c-22 -13 -22 -13 24 -47 26 -18 45 -27 42 -19 -2 8 -17
20 -31 27 -31 15 -34 27 -9 41 25 15 1 13 -26 -2z"/>
<path d="M5107 7633 c-3 -5 0 -19 5 -33 7 -18 11 -21 17 -11 5 7 6 22 4 32 -5
19 -18 25 -26 12z"/>
<path d="M4980 7613 c1 -13 38 -53 49 -53 6 0 11 -4 11 -10 0 -5 8 -10 18 -10
13 1 9 8 -15 29 -18 15 -33 33 -33 39 0 7 -7 12 -15 12 -8 0 -15 -3 -15 -7z"/>
<path d="M4908 7567 c-37 -21 -48 -37 -28 -37 6 0 10 4 10 8 0 4 16 14 35 21
19 7 35 17 35 22 0 13 -11 11 -52 -14z"/>
<path d="M4964 7545 c-19 -14 -18 -14 4 -15 13 0 22 6 22 15 0 19 -1 19 -26 0z"/>
<path d="M4910 7524 c0 -11 45 -43 60 -44 9 0 3 10 -15 25 -30 24 -45 31 -45
19z"/>
<path d="M5000 7504 c0 -8 5 -12 10 -9 6 3 10 10 10 16 0 5 -4 9 -10 9 -5 0
-10 -7 -10 -16z"/>
<path d="M5293 7644 c10 -10 120 -54 125 -50 4 5 -106 56 -121 56 -6 0 -7 -3
-4 -6z"/>
<path d="M5310 7570 c0 -5 7 -10 15 -10 8 0 15 5 15 10 0 6 -7 10 -15 10 -8 0
-15 -4 -15 -10z"/>
<path d="M5445 7570 c3 -5 11 -10 16 -10 6 0 7 5 4 10 -3 6 -11 10 -16 10 -6
0 -7 -4 -4 -10z"/>
<path d="M5357 7563 c-12 -12 -7 -22 8 -17 8 4 15 10 15 15 0 11 -14 12 -23 2z"/>
<path d="M5490 7539 c0 -5 5 -7 10 -4 6 3 10 8 10 11 0 2 -4 4 -10 4 -5 0 -10
-5 -10 -11z"/>
<path d="M5412 7533 c-10 -4 -10 -8 -1 -19 15 -18 28 -18 25 1 -3 19 -8 23
-24 18z"/>
<path d="M5755 7285 c-5 -2 -22 -6 -37 -9 -15 -4 -43 -20 -63 -37 -82 -73 -43
-206 73 -243 64 -20 121 -30 103 -18 -10 7 1 14 41 26 97 28 143 109 104 184
-18 34 -54 68 -86 80 -29 11 -120 23 -135 17z m128 -71 c83 -40 63 -136 -34
-164 -85 -25 -189 29 -189 98 0 23 8 37 33 55 17 14 41 27 52 30 32 9 100 -1
138 -19z"/>
<path d="M5423 7070 c-42 -25 -45 -70 -8 -104 31 -29 67 -37 111 -24 70 19 82
91 21 128 -41 25 -83 25 -124 0z"/>
<path d="M5134 6941 c-107 -65 -76 -182 55 -212 90 -20 191 37 191 108 0 41
-30 87 -70 108 -42 22 -138 19 -176 -4z"/>
<path d="M5170 7380 c-11 -7 -3 -10 30 -10 33 0 41 3 30 10 -8 5 -22 10 -30
10 -8 0 -22 -5 -30 -10z"/>
<path d="M8380 4772 c0 -20 76 -69 88 -57 9 9 -54 65 -73 65 -8 0 -15 -4 -15
-8z"/>
<path d="M8394 4539 c-19 -21 -19 -21 11 -17 18 2 30 9 30 17 0 23 -20 23 -41
0z"/>
<path d="M8319 4491 c-22 -18 -22 -20 -6 -26 19 -8 47 10 47 31 0 19 -14 17
-41 -5z"/>
<path d="M7460 6470 c0 -13 7 -20 20 -20 24 0 27 25 4 34 -23 9 -24 8 -24 -14z"/>
<path d="M6130 6650 c0 -5 5 -10 10 -10 6 0 10 5 10 10 0 6 -4 10 -10 10 -5 0
-10 -4 -10 -10z"/>
<path d="M1828 6420 c-70 -54 -11 -187 67 -152 33 15 60 72 51 106 -15 61 -71
83 -118 46z m70 -74 c-4 -42 -38 -43 -53 -3 -8 24 -6 31 9 43 27 19 48 0 44
-40z"/>
<path d="M5598 6433 c-10 -2 -18 -11 -18 -19 0 -12 3 -12 20 -2 11 7 20 16 20
20 0 5 -1 7 -2 7 -2 -1 -11 -3 -20 -6z"/>
<path d="M2457 5873 c-15 -15 -7 -43 13 -43 15 0 20 7 20 25 0 24 -18 34 -33
18z"/>
<path d="M6220 5360 c27 -21 40 -25 40 -12 0 4 -15 13 -32 20 l-33 12 25 -20z"/>
<path d="M3400 4986 c0 -11 9 -16 26 -16 31 0 28 23 -4 28 -15 2 -22 -2 -22
-12z"/>
<path d="M3533 4893 c-21 -8 -15 -22 7 -16 11 3 20 9 20 14 0 10 -8 10 -27 2z"/>
<path d="M4622 5328 c4 -30 35 -48 48 -28 15 23 12 27 -21 39 -28 10 -30 9
-27 -11z m36 -17 c3 -8 -1 -12 -9 -9 -7 2 -15 10 -17 17 -3 8 1 12 9 9 7 -2
15 -10 17 -17z"/>
<path d="M4712 5288 c-18 -18 -15 -30 5 -19 13 7 20 5 29 -7 7 -10 16 -14 20
-10 7 8 -23 48 -36 48 -3 0 -11 -5 -18 -12z"/>
<path d="M4646 5245 c-3 -8 -1 -15 4 -15 6 0 10 7 10 15 0 8 -2 15 -4 15 -2 0
-6 -7 -10 -15z"/>
<path d="M4795 5240 c-10 -17 12 -37 25 -24 8 8 6 15 -4 23 -10 9 -16 9 -21 1z"/>
<path d="M4690 5226 c0 -8 61 -38 66 -33 3 2 -1 9 -8 14 -16 13 -58 26 -58 19z"/>
<path d="M4840 5200 c0 -5 7 -10 16 -10 8 0 12 5 9 10 -3 6 -10 10 -16 10 -5
0 -9 -4 -9 -10z"/>
<path d="M4880 5180 c0 -5 5 -10 10 -10 6 0 10 5 10 10 0 6 -4 10 -10 10 -5 0
-10 -4 -10 -10z"/>
<path d="M4790 5165 c7 -8 20 -15 29 -15 13 1 13 3 -3 15 -26 19 -42 19 -26 0z"/>
<path d="M4916 5156 c3 -9 11 -16 16 -16 13 0 5 23 -10 28 -7 2 -10 -2 -6 -12z"/>
<path d="M4845 5130 c9 -15 65 -42 65 -31 0 10 -45 41 -60 41 -6 0 -8 -5 -5
-10z"/>
<path d="M4886 5054 c-32 -32 -7 -78 39 -72 24 2 31 8 33 31 6 50 -38 75 -72
41z"/>
<path d="M3355 5215 c-29 -23 -29 -24 -7 -25 31 0 62 17 62 35 0 22 -21 18
-55 -10z"/>
<path d="M3257 5183 c-3 -5 5 -16 18 -25 21 -16 24 -16 36 -2 10 13 10 17 -2
25 -17 11 -46 12 -52 2z"/>
<path d="M7172 5123 c2 -10 11 -19 21 -21 24 -5 21 15 -4 28 -18 10 -20 9 -17
-7z"/>
<path d="M7290 5070 c0 -11 40 -34 47 -26 3 3 3 12 0 21 -7 16 -47 21 -47 5z"/>
<path d="M7360 5030 c0 -5 5 -10 10 -10 6 0 10 5 10 10 0 6 -4 10 -10 10 -5 0
-10 -4 -10 -10z"/>
<path d="M7246 4985 c-17 -13 -17 -15 -3 -21 23 -8 47 2 47 21 0 19 -19 19
-44 0z"/>
<path d="M7430 4940 c-11 -21 -44 -27 -55 -10 -7 12 -25 13 -25 3 0 -5 6 -16
14 -25 12 -16 15 -16 54 3 23 12 42 27 42 35 0 21 -18 17 -30 -6z"/>
<path d="M7110 4936 c0 -11 9 -16 26 -16 31 0 28 23 -4 28 -15 2 -22 -2 -22
-12z"/>
<path d="M7528 4894 c-27 -14 -39 -44 -18 -44 22 0 70 31 70 45 0 19 -17 18
-52 -1z"/>
<path d="M6987 4874 c-10 -11 3 -24 24 -24 10 0 19 7 19 15 0 15 -31 21 -43 9z"/>
<path d="M7247 4873 c-12 -11 25 -43 50 -43 31 0 30 16 -2 24 -14 4 -25 11
-25 16 0 11 -13 13 -23 3z"/>
<path d="M7113 4845 c0 -14 3 -25 6 -25 14 0 29 23 24 36 -9 23 -30 16 -30
-11z"/>
<path d="M7408 4817 c-31 -25 -35 -37 -14 -37 16 0 66 38 66 51 0 16 -24 9
-52 -14z"/>
<path d="M7148 4773 c-21 -5 -24 -23 -5 -23 7 0 22 7 33 15 20 15 9 18 -28 8z"/>
<path d="M6834 4749 c-9 -16 18 -30 33 -17 7 6 10 14 7 19 -7 13 -31 11 -40
-2z"/>
<path d="M7010 4740 c0 -13 7 -20 20 -20 23 0 26 10 8 28 -18 18 -28 15 -28
-8z"/>
<path d="M7293 4739 c-34 -22 -43 -39 -19 -39 16 0 66 38 66 51 0 14 -12 11
-47 -12z"/>
<path d="M7100 4706 c0 -9 5 -16 10 -16 6 0 10 4 10 9 0 6 -4 13 -10 16 -5 3
-10 -1 -10 -9z"/>
<path d="M7167 4664 c-15 -8 -25 -19 -22 -24 10 -16 28 -11 60 15 26 21 27 24
10 24 -11 0 -33 -7 -48 -15z"/>
<path d="M7101 4606 c-8 -9 -11 -19 -7 -23 9 -9 29 13 24 27 -2 8 -8 7 -17 -4z"/>
<path d="M6830 4961 c0 -14 5 -18 20 -14 11 3 20 12 20 19 0 8 -9 14 -20 14
-13 0 -20 -7 -20 -19z"/>
<path d="M3500 4649 c0 -5 5 -7 10 -4 6 3 10 8 10 11 0 2 -4 4 -10 4 -5 0 -10
-5 -10 -11z"/>
<path d="M4528 4293 c6 -2 18 -2 25 0 6 3 1 5 -13 5 -14 0 -19 -2 -12 -5z"/>
<path d="M4930 4109 c-19 -17 -57 -43 -83 -59 l-49 -28 78 -51 c79 -52 122
-65 110 -35 -3 9 -6 22 -6 30 0 10 -6 13 -18 10 -17 -6 -82 27 -82 41 0 10 83
63 97 63 6 0 16 7 23 15 10 12 10 18 0 30 -18 21 -30 18 -70 -16z"/>
<path d="M5432 4091 c4 -13 18 -16 19 -4 0 4 -5 9 -11 12 -7 2 -11 -2 -8 -8z"/>
<path d="M5020 4045 c-23 -28 16 -48 50 -25 13 9 12 12 -4 25 -25 19 -31 19
-46 0z"/>
<path d="M6036 3744 c-3 -9 -6 -33 -6 -54 0 -48 31 -73 58 -46 18 17 18 81 1
102 -15 19 -45 18 -53 -2z"/>
<path d="M5412 3400 c-17 -28 -15 -54 7 -74 41 -37 87 15 62 70 -13 30 -51 32
-69 4z"/>
<path d="M7985 3591 c-42 -25 -294 -189 -516 -336 -33 -22 -102 -67 -154 -100
-433 -277 -833 -544 -853 -568 -8 -9 -11 -21 -7 -27 13 -20 48 -9 103 34 31
24 118 82 192 129 74 48 306 199 515 336 209 137 476 311 593 388 143 93 212
144 212 155 0 26 -28 22 -85 -11z"/>
<path d="M8000 3492 c-58 -38 -150 -98 -205 -134 -55 -35 -185 -121 -290 -189
-104 -69 -262 -172 -350 -230 -561 -366 -637 -418 -632 -432 10 -29 65 -2 262
127 391 258 490 323 645 423 167 107 609 397 675 442 22 15 40 33 40 41 0 33
-44 18 -145 -48z"/>
<path d="M6290 2511 c0 -24 5 -32 25 -37 39 -10 57 2 53 33 -3 24 -8 28 -40
31 -36 3 -38 2 -38 -27z"/>
<path d="M6402 2458 c-20 -20 -14 -44 15 -57 23 -11 29 -10 40 5 7 10 13 23
13 29 0 16 -22 35 -40 35 -9 0 -21 -5 -28 -12z"/>
<path d="M5162 1363 c-17 -7 -42 -57 -42 -86 0 -36 46 -77 85 -77 25 0 40 8
64 35 36 41 36 45 16 86 -21 40 -78 60 -123 42z"/>
<path d="M5530 9015 c-10 -12 -10 -15 3 -15 19 0 31 16 18 24 -5 3 -14 -1 -21
-9z"/>
<path d="M4608 8877 c-120 -78 -311 -203 -425 -278 -115 -75 -218 -141 -230
-148 l-23 -12 0 93 c0 51 -4 109 -10 128 -6 22 -6 38 0 44 6 6 10 24 10 42 0
35 -23 52 -46 33 -14 -12 -19 -60 -8 -72 4 -3 7 -63 9 -132 1 -110 -1 -128
-16 -138 -9 -7 -19 -23 -21 -36 -2 -17 -35 -44 -133 -106 l-130 -84 -9 75 c-7
60 -12 74 -25 72 -13 -3 -15 -16 -13 -77 4 -65 2 -74 -17 -87 -12 -9 -21 -23
-21 -33 0 -17 -32 -39 -302 -212 -43 -27 -78 -53 -78 -58 0 -5 6 -14 14 -20
16 -14 11 -17 244 136 78 51 145 100 149 108 4 12 8 13 19 4 12 -9 22 -4 52
27 20 22 89 72 152 113 63 41 118 79 122 84 4 7 12 6 22 -2 13 -11 17 -9 27
10 6 14 87 74 187 140 333 220 647 425 697 455 50 30 67 66 35 71 -8 1 -113
-62 -232 -140z"/>
<path d="M5190 8897 c0 -19 29 -57 44 -57 6 0 27 -11 46 -25 22 -16 37 -22 44
-15 5 5 8 11 5 13 -55 43 -130 97 -134 97 -3 0 -5 -6 -5 -13z"/>
<path d="M5520 8893 c0 -13 29 -38 35 -31 3 3 -4 13 -15 23 -11 10 -20 13 -20
8z"/>
<path d="M5117 8863 c-39 -28 -47 -43 -22 -43 21 0 64 29 76 51 14 28 -9 24
-54 -8z"/>
<path d="M4845 8818 c-31 -24 -31 -61 1 -66 31 -4 68 29 60 55 -10 31 -31 35
-61 11z"/>
<path d="M6478 8823 c-2 -4 -4 -26 -3 -48 0 -34 4 -40 23 -43 22 -3 23 -1 20
45 -2 35 -7 49 -20 51 -9 2 -18 -1 -20 -5z"/>
<path d="M5021 8796 c-25 -26 -18 -38 15 -26 29 11 37 25 21 39 -11 8 -19 5
-36 -13z"/>
<path d="M5350 8782 c0 -19 19 -33 50 -38 8 -1 23 -5 33 -9 37 -15 14 12 -33
38 -47 26 -50 27 -50 9z"/>
<path d="M5488 8757 c-15 -12 -28 -29 -30 -37 -2 -8 -7 -18 -13 -23 -6 -4 12
-28 43 -58 36 -35 50 -54 41 -59 -6 -4 -8 -13 -5 -19 13 -20 26 -11 26 17 0
16 8 36 18 45 24 22 32 21 32 -3 0 -23 74 -74 96 -66 24 9 16 20 -38 51 -44
25 -54 37 -68 78 -15 48 -50 97 -67 97 -4 -1 -20 -11 -35 -23z"/>
<path d="M4944 8746 c-15 -12 -16 -17 -7 -27 10 -10 17 -9 33 6 36 33 14 50
-26 21z"/>
<path d="M4740 8718 c-23 -38 -23 -38 -10 -58 8 -13 13 -13 37 0 22 12 29 24
31 53 3 32 0 37 -18 37 -12 0 -28 -13 -40 -32z"/>
<path d="M3739 8669 c-101 -66 -107 -69 -133 -56 -14 8 -37 12 -51 9 -36 -6
-93 -74 -100 -119 -4 -21 -8 -43 -10 -50 -2 -7 -63 -51 -135 -99 -71 -48 -130
-90 -130 -94 0 -4 6 -12 13 -18 9 -8 45 12 137 74 124 82 126 83 175 78 42 -5
55 -2 79 17 30 23 65 90 66 123 0 21 4 24 117 102 83 58 96 72 85 91 -4 7 -48
-16 -113 -58z"/>
<path d="M4879 8730 c-21 -5 -69 -61 -69 -80 0 -9 47 -30 69 -30 19 0 42 22
58 55 13 28 -24 63 -58 55z"/>
<path d="M6000 8624 c0 -53 48 -89 64 -48 9 25 7 33 -14 54 -28 28 -50 26 -50
-6z"/>
<path d="M4761 8627 c-25 -13 -38 -47 -17 -47 19 0 56 30 56 46 0 17 -8 17
-39 1z"/>
<path d="M5863 8614 c-3 -8 0 -27 6 -40 15 -33 64 -31 69 3 5 37 -62 71 -75
37z"/>
<path d="M4666 8571 c-3 -5 0 -13 7 -19 15 -13 42 1 33 17 -9 13 -33 15 -40 2z"/>
<path d="M5960 8551 c0 -13 12 -27 30 -36 26 -13 30 -21 30 -55 0 -22 -2 -40
-5 -40 -21 0 -77 50 -83 75 -10 38 -47 45 -85 15 -31 -24 -34 -55 -11 -88 13
-20 216 -162 230 -162 2 0 3 54 1 119 -3 130 -5 136 -79 176 -26 15 -28 14
-28 -4z"/>
<path d="M5724 8538 c-8 -12 21 -38 43 -38 20 0 15 28 -6 40 -25 13 -28 13
-37 -2z"/>
<path d="M4603 8524 c-10 -27 12 -38 36 -18 11 10 21 22 21 26 0 15 -51 8 -57
-8z"/>
<path d="M5520 8480 c0 -11 7 -20 15 -20 8 0 15 9 15 20 0 11 -7 20 -15 20 -8
0 -15 -9 -15 -20z"/>
<path d="M3122 8104 c-25 -17 -28 -36 -9 -52 19 -16 59 14 55 41 -4 27 -18 31
-46 11z"/>
<path d="M8235 7850 c-3 -5 -1 -10 4 -10 6 0 11 5 11 10 0 6 -2 10 -4 10 -3 0
-8 -4 -11 -10z"/>
<path d="M8583 7666 c0 -26 22 -43 32 -25 9 14 -5 49 -19 49 -8 0 -13 -11 -13
-24z"/>
<path d="M8240 7605 c0 -38 3 -45 20 -45 17 0 20 7 20 45 0 38 -3 45 -20 45
-17 0 -20 -7 -20 -45z"/>
<path d="M8580 7610 c0 -5 7 -10 15 -10 8 0 15 5 15 10 0 6 -7 10 -15 10 -8 0
-15 -4 -15 -10z"/>
<path d="M1870 7580 c0 -15 5 -20 18 -18 9 2 17 10 17 18 0 8 -8 16 -17 18
-13 2 -18 -3 -18 -18z"/>
<path d="M1320 7510 c0 -6 9 -20 20 -32 19 -21 20 -21 40 -3 21 19 27 45 10
45 -5 0 -10 -4 -10 -10 0 -5 -7 -10 -15 -10 -8 0 -15 5 -15 10 0 6 -7 10 -15
10 -8 0 -15 -5 -15 -10z"/>
<path d="M3138 7469 c-10 -6 -22 -18 -28 -29 -21 -39 19 -73 51 -44 36 32 15
94 -23 73z"/>
<path d="M9033 7473 c-21 -8 -15 -43 6 -43 11 0 22 4 25 9 8 12 -17 39 -31 34z"/>
<path d="M1415 7461 c-6 -11 55 -61 73 -61 22 0 12 29 -17 49 -32 23 -47 26
-56 12z"/>
<path d="M8964 7427 c-7 -20 3 -37 22 -37 18 0 18 24 -1 40 -12 10 -16 9 -21
-3z"/>
<path d="M3010 7260 c-23 -23 -27 -68 -6 -76 38 -14 76 38 56 76 -13 25 -25
25 -50 0z"/>
<path d="M1433 6697 c-36 -24 -62 -49 -63 -59 0 -10 4 -18 10 -18 7 0 133 72
148 85 7 6 -11 35 -22 34 -6 -1 -39 -20 -73 -42z"/>
<path d="M8967 6734 c-15 -15 -7 -45 11 -42 9 2 17 12 17 22 0 20 -16 31 -28
20z"/>
<path d="M9016 6694 c-3 -8 -6 -17 -6 -19 0 -9 133 -84 141 -80 25 16 4 37
-97 97 -29 17 -32 17 -38 2z"/>
<path d="M2458 6659 c-98 -68 -98 -108 0 -52 64 36 82 53 82 75 0 27 -18 22
-82 -23z"/>
<path d="M3100 6652 c0 -14 23 -32 42 -32 21 0 23 11 6 28 -13 13 -48 16 -48
4z"/>
<path d="M2313 6581 c-9 -14 -9 -21 0 -30 25 -25 63 0 46 31 -12 23 -31 23
-46 -1z"/>
<path d="M2377 6526 c-3 -8 11 -26 38 -45 48 -35 60 -38 68 -17 6 16 -14 37
-60 60 -39 19 -40 19 -46 2z"/>
<path d="M2731 5499 c-15 -43 -4 -55 25 -28 29 27 32 59 5 59 -12 0 -23 -11
-30 -31z"/>
<path d="M2720 5360 c0 -16 4 -30 9 -30 5 0 11 14 13 30 3 20 0 30 -9 30 -8 0
-13 -12 -13 -30z"/>
<path d="M2650 5295 c0 -26 14 -31 39 -16 19 12 6 41 -19 41 -15 0 -20 -7 -20
-25z"/>
<path d="M2205 5129 c-10 -16 4 -61 18 -56 19 6 22 67 3 67 -8 0 -18 -5 -21
-11z"/>
<path d="M2204 5034 c3 -9 6 -22 6 -30 0 -8 7 -14 15 -14 10 0 15 10 15 30 0
24 -4 30 -21 30 -15 0 -19 -4 -15 -16z"/>
<path d="M1985 4710 c3 -5 13 -10 21 -10 8 0 12 5 9 10 -3 6 -13 10 -21 10 -8
0 -12 -4 -9 -10z"/>
<path d="M3111 4376 c-18 -33 -11 -58 22 -76 24 -13 30 -13 55 0 30 17 41 62
21 86 -6 8 -28 14 -49 14 -28 0 -39 -5 -49 -24z"/>
<path d="M3490 3771 c0 -28 11 -52 21 -45 16 9 11 64 -6 64 -8 0 -15 -9 -15
-19z"/>
<path d="M2410 3610 c0 -5 9 -19 21 -31 16 -16 23 -18 35 -8 11 9 14 8 14 -8
0 -14 37 -45 133 -108 155 -104 285 -185 297 -185 4 0 13 7 20 15 10 12 -16
33 -166 131 -97 64 -201 130 -231 145 -29 15 -63 35 -75 44 -26 17 -48 20 -48
5z"/>
<path d="M2990 3299 c-19 -12 -37 -23 -39 -24 -1 -2 9 -20 25 -40 28 -37 183
-143 599 -410 28 -18 109 -70 180 -117 389 -253 669 -434 686 -443 10 -5 19
-20 19 -32 0 -28 33 -63 60 -63 26 0 60 34 60 60 0 27 -34 59 -70 66 -16 4
-106 56 -200 118 -93 61 -303 197 -465 301 -624 402 -781 504 -807 525 -15 12
-32 19 -37 16 -5 -3 -14 1 -21 9 -7 8 -9 15 -4 15 10 0 63 39 54 40 -3 0 -21
-10 -40 -21z"/>
<path d="M2908 3243 c-10 -2 -18 -11 -18 -20 0 -10 6 -13 16 -9 9 3 20 6 25 6
5 0 9 7 9 15 0 15 -2 16 -32 8z"/>
<path d="M2830 3199 c-7 -11 -10 -23 -7 -25 8 -8 37 8 37 21 0 24 -19 26 -30
4z"/>
<path d="M1546 3154 c-10 -26 -7 -34 14 -34 11 0 20 4 20 9 0 17 -12 41 -20
41 -4 0 -11 -7 -14 -16z"/>
<path d="M2940 3162 c0 -4 5 -13 12 -20 16 -16 28 -15 28 2 0 8 -7 17 -16 20
-21 8 -24 8 -24 -2z"/>
<path d="M4501 3151 c-13 -23 -4 -51 15 -51 9 0 14 11 14 29 0 37 -15 48 -29
22z"/>
<path d="M1480 3115 c-7 -8 -9 -22 -6 -31 5 -13 9 -14 21 -4 16 13 21 50 6 50
-5 0 -14 -7 -21 -15z"/>
<path d="M3016 3114 c-7 -18 8 -34 32 -34 18 0 15 14 -7 34 -17 16 -19 16 -25
0z"/>
<path d="M3092 3048 c5 -15 28 -18 29 -3 0 6 -7 12 -17 13 -10 3 -15 -1 -12
-10z"/>
<path d="M5905 2137 c-33 -23 -103 -70 -155 -104 -280 -183 -326 -221 -284
-237 24 -9 547 341 540 361 -3 8 -6 17 -6 19 0 15 -44 -3 -95 -39z"/>
<path d="M4230 2102 c0 -12 18 -29 50 -46 38 -20 50 -24 50 -13 0 20 -27 40
-41 31 -7 -4 -9 -3 -5 4 3 6 -4 18 -16 26 -29 21 -38 20 -38 -2z"/>
<path d="M4354 2028 c-8 -13 25 -48 48 -48 11 0 18 7 18 18 0 20 -56 46 -66
30z"/>
<path d="M4812 1118 c-18 -18 -14 -38 7 -38 17 0 31 18 31 41 0 13 -24 11 -38
-3z"/>
<path d="M5584 1114 c3 -9 6 -18 6 -20 0 -2 7 -4 15 -4 8 0 15 9 15 20 0 14
-7 20 -21 20 -15 0 -19 -4 -15 -16z"/>
<path d="M5190 835 c0 -18 5 -25 20 -25 15 0 20 7 20 25 0 18 -5 25 -20 25
-15 0 -20 -7 -20 -25z"/>
<path d="M5190 755 c0 -18 5 -25 20 -25 15 0 20 7 20 25 0 18 -5 25 -20 25
-15 0 -20 -7 -20 -25z"/>
</g>
</svg>
